<svg xmlns="http://www.w3.org/2000/svg" width="12.15" height="14.176" viewBox="0 0 12.15 14.176">
  <path id="ic-download" d="M14.183,5.209a1.841,1.841,0,0,1,.38.6,1.826,1.826,0,0,1,.158.7V15.62a.756.756,0,0,1-.759.759H3.33a.756.756,0,0,1-.759-.759V2.963A.756.756,0,0,1,3.33,2.2h7.088a1.826,1.826,0,0,1,.7.158,1.841,1.841,0,0,1,.6.38Zm-3.512-1.93V6.254h2.974a.864.864,0,0,0-.174-.324L11,3.453a.864.864,0,0,0-.324-.174Zm3.038,12.087v-8.1H10.418a.756.756,0,0,1-.759-.759V3.216H3.583v12.15H13.709ZM9.643,10.676a6.019,6.019,0,0,0,.664.443,7.85,7.85,0,0,1,.926-.055q1.163,0,1.4.388a.382.382,0,0,1,.016.411.023.023,0,0,1-.008.016l-.016.016V11.9q-.047.3-.562.3a3.263,3.263,0,0,1-.91-.158,5.768,5.768,0,0,1-1.028-.419,14.244,14.244,0,0,0-3.1.657q-1.21,2.073-1.914,2.073a.46.46,0,0,1-.221-.055L4.7,14.2l-.047-.04a.327.327,0,0,1-.047-.285,1.718,1.718,0,0,1,.443-.724,3.823,3.823,0,0,1,1.044-.763.115.115,0,0,1,.182.047.046.046,0,0,1,.016.032q.411-.672.846-1.558A12.074,12.074,0,0,0,7.958,8.84a6.4,6.4,0,0,1-.241-1.262A3.076,3.076,0,0,1,7.768,6.57q.087-.316.332-.316h.174a.334.334,0,0,1,.277.119.632.632,0,0,1,.071.538.172.172,0,0,1-.032.063.206.206,0,0,1,.008.063v.237a10.359,10.359,0,0,1-.111,1.519,4,4,0,0,0,1.155,1.883ZM5.086,13.927a3.493,3.493,0,0,0,1.084-1.25,4.509,4.509,0,0,0-.692.664A2.629,2.629,0,0,0,5.086,13.927ZM8.235,6.649a2.352,2.352,0,0,0-.016,1.044q.008-.055.055-.348,0-.024.055-.34a.178.178,0,0,1,.032-.063.023.023,0,0,1-.008-.016.016.016,0,0,0,0-.012.016.016,0,0,1,0-.012.455.455,0,0,0-.1-.285.023.023,0,0,1-.008.016v.016Zm-.981,5.229A11.6,11.6,0,0,1,9.5,11.237a1.193,1.193,0,0,1-.1-.075,1.417,1.417,0,0,1-.127-.107,4.19,4.19,0,0,1-1-1.392,10.571,10.571,0,0,1-.657,1.558q-.237.443-.356.657Zm5.11-.127a1.893,1.893,0,0,0-1.107-.19,2.992,2.992,0,0,0,.981.221.767.767,0,0,0,.142-.008q0-.008-.016-.024Z" transform="translate(-2.571 -2.203)" fill="#0076bf"/>
</svg>
