<svg xmlns="http://www.w3.org/2000/svg" width="16.676" height="15.969" viewBox="0 0 16.676 15.969">
  <g id="ic-money" transform="translate(-1892.768 -146.873)">
    <path id="Path_160631" data-name="Path 160631" d="M2071.8,264.149c0,1.063-.01,2.126,0,3.189a1.476,1.476,0,0,1-.537,1.181,3.315,3.315,0,0,1-1.293.7,8.72,8.72,0,0,1-5.848-.194,3.307,3.307,0,0,1-.779-.48,1.477,1.477,0,0,1-.583-1.248c.014-2.126.01-4.252,0-6.378a1.258,1.258,0,0,1,.377-.926,3.584,3.584,0,0,1,1.522-.876,7.966,7.966,0,0,1,5.736.2,4.535,4.535,0,0,1,1.051.708,1.053,1.053,0,0,1,.351.864C2071.795,261.978,2071.8,263.064,2071.8,264.149Zm-8.334-2.058v.2c0,.577.008,1.153,0,1.73a.721.721,0,0,0,.316.657,4.225,4.225,0,0,0,.835.471,8.039,8.039,0,0,0,4.334.293,4.1,4.1,0,0,0,1.814-.728.84.84,0,0,0,.357-.732c-.015-.569,0-1.138,0-1.707,0-.071-.008-.142-.01-.182A8.542,8.542,0,0,1,2063.467,262.092Zm7.649,3.318a8.559,8.559,0,0,1-7.64.01c0,.047-.009.119-.009.192,0,.576.008,1.153,0,1.729a.721.721,0,0,0,.313.659,4.142,4.142,0,0,0,.858.477,7.828,7.828,0,0,0,4.87.144,5.757,5.757,0,0,0,1.179-.529.822.822,0,0,0,.439-.823c-.023-.4-.006-.808-.006-1.213Zm-3.979-3.13a7.6,7.6,0,0,0,2.8-.444,3.678,3.678,0,0,0,.872-.493.568.568,0,0,0,.005-1.008,3.182,3.182,0,0,0-.909-.513,8.039,8.039,0,0,0-5.2-.021,2.425,2.425,0,0,0-1.051.621.53.53,0,0,0-.006.815,2.193,2.193,0,0,0,.535.4A6.774,6.774,0,0,0,2067.137,262.28Z" transform="translate(-162.362 -106.786)"/>
    <path id="Path_160632" data-name="Path 160632" d="M1896.1,147.6c-.039.171-.064.343-.117.505a2.882,2.882,0,0,1-2.26,2.047c-.172.037-.232.094-.229.273.011.666.009,1.333,0,2,0,.151.05.2.2.231a2.888,2.888,0,0,1,2.354,2.354c.029.156.091.19.234.189.98,0,1.961,0,2.942,0a1.559,1.559,0,0,1,.224.007.346.346,0,0,1-.016.69,1.283,1.283,0,0,1-.179,0h-5.929c-.405,0-.506-.1-.506-.5q0-4.01,0-8.019c0-.405.1-.509.5-.509h14.283c.392,0,.5.1.5.485q0,1.853,0,3.706c0,.052,0,.105,0,.157a.334.334,0,0,1-.351.331.324.324,0,0,1-.328-.329c-.009-.239-.009-.479,0-.719a.174.174,0,0,0-.167-.21,3.027,3.027,0,0,1-2.536-2.565.231.231,0,0,0-.165-.146q-4.188-.009-8.376,0A.342.342,0,0,0,1896.1,147.6Zm11.293,2v-2h-1.99A2.313,2.313,0,0,0,1907.393,149.6Zm-13.881-2.01v1.874a2.136,2.136,0,0,0,1.847-1.874Zm1.847,7.595c-.093-.925-1.09-1.9-1.846-1.818v1.818Z" transform="translate(-0.041)"/>
    <path id="Path_160633" data-name="Path 160633" d="M2012.9,192.12a3.182,3.182,0,0,1,.652-1.823,1.985,1.985,0,0,1,3.149-.008,2.9,2.9,0,0,1,.591,1.389.935.935,0,0,1,.012.134.346.346,0,0,1-.318.368.33.33,0,0,1-.36-.3,2.317,2.317,0,0,0-.457-1.13,1.278,1.278,0,0,0-2.118.044,2.231,2.231,0,0,0,.147,2.816c.05.056.1.107.156.162a.356.356,0,0,1,.034.535.346.346,0,0,1-.518-.034,2.737,2.737,0,0,1-.791-1.259C2013,192.725,2012.961,192.42,2012.9,192.12Z" transform="translate(-114.739 -40.728)"/>
    <path id="Path_160634" data-name="Path 160634" d="M1896.314,424.915h2.984a.877.877,0,0,1,.179.005.333.333,0,0,1,.3.339.321.321,0,0,1-.293.341,1.333,1.333,0,0,1-.224.01h-5.9c-.362,0-.522-.106-.523-.345s.159-.35.517-.35Z" transform="translate(-0.064 -265.552)"/>
    <path id="Path_160635" data-name="Path 160635" d="M1896.23,379.448c-1.018,0-2.036,0-3.054,0a.358.358,0,0,1-.4-.26.335.335,0,0,1,.272-.418,1.221,1.221,0,0,1,.2-.006h5.973a1.045,1.045,0,0,1,.2.007.339.339,0,0,1,.011.667.846.846,0,0,1-.2.009Z" transform="translate(0 -221.476)"/>
    <path id="Path_160636" data-name="Path 160636" d="M2078.311,334.617a8.542,8.542,0,0,0,7.639,0c0,.04.01.111.01.182,0,.569-.01,1.138,0,1.707a.84.84,0,0,1-.358.732,4.1,4.1,0,0,1-1.814.728,8.037,8.037,0,0,1-4.334-.293,4.22,4.22,0,0,1-.835-.471.722.722,0,0,1-.316-.657c.011-.576,0-1.153,0-1.73Z" transform="translate(-177.206 -179.312)" fill="#c1e7ff"/>
    <path id="Path_160637" data-name="Path 160637" d="M2085.955,408.495v.647c0,.4-.018.81.005,1.213a.821.821,0,0,1-.439.823,5.762,5.762,0,0,1-1.18.529,7.828,7.828,0,0,1-4.87-.144,4.137,4.137,0,0,1-.858-.477.721.721,0,0,1-.312-.659c.012-.576,0-1.153,0-1.729,0-.072.007-.144.009-.192A8.559,8.559,0,0,0,2085.955,408.495Z" transform="translate(-177.2 -249.872)" fill="#c1e7ff"/>
    <path id="Path_160638" data-name="Path 160638" d="M2082.047,277.114a6.775,6.775,0,0,1-2.948-.645,2.2,2.2,0,0,1-.536-.4.531.531,0,0,1,.006-.815,2.424,2.424,0,0,1,1.051-.621,8.039,8.039,0,0,1,5.2.021,3.183,3.183,0,0,1,.909.513.568.568,0,0,1,0,1.008,3.687,3.687,0,0,1-.872.493A7.6,7.6,0,0,1,2082.047,277.114Z" transform="translate(-177.271 -121.621)" fill="#c1e7ff"/>
    <path id="Path_160639" data-name="Path 160639" d="M2175.141,164.977a2.313,2.313,0,0,1-1.99-2h1.99Z" transform="translate(-267.79 -15.377)" fill="#c1e7ff"/>
    <path id="Path_160640" data-name="Path 160640" d="M1908.383,162.829h1.847a2.136,2.136,0,0,1-1.847,1.874Z" transform="translate(-14.913 -15.239)" fill="#c1e7ff"/>
    <path id="Path_160641" data-name="Path 160641" d="M1910.25,293.16H1908.4v-1.818C1909.16,291.259,1910.157,292.236,1910.25,293.16Z" transform="translate(-14.933 -137.976)" fill="#c1e7ff"/>
  </g>
</svg>
