<svg xmlns="http://www.w3.org/2000/svg" width="15.55" height="15.521" viewBox="0 0 15.55 15.521">
  <g id="ic-print" transform="translate(0 0)">
    <g id="Group_4370" data-name="Group 4370" transform="translate(0 0)">
      <g id="Group_4369" data-name="Group 4369" transform="translate(0 0)">
        <path id="Path_160595" data-name="Path 160595" d="M-423.292,1058.144c0,.677,0,1.332,0,1.985a1.371,1.371,0,0,1-1.439,1.439H-432a1.371,1.371,0,0,1-1.436-1.443c0-.654,0-1.307,0-1.982h-.38a2.278,2.278,0,0,1-2.322-2.327q0-1.759,0-3.518a2.275,2.275,0,0,1,2.324-2.342h.378v-.181c0-.477,0-.953,0-1.429a2.277,2.277,0,0,1,2.3-2.3h5.543a2.278,2.278,0,0,1,2.3,2.3c0,.528,0,1.056,0,1.607.15,0,.289,0,.428,0a2.263,2.263,0,0,1,2.223,1.815,2.063,2.063,0,0,1,.048.435q.006,1.838,0,3.675a2.281,2.281,0,0,1-2.262,2.26Zm-10.159-.916v-1.505c-.081,0-.149,0-.216,0a.461.461,0,0,1-.5-.456.451.451,0,0,1,.492-.453h10.617a.45.45,0,0,1,.485.445.46.46,0,0,1-.487.465c-.076,0-.152,0-.226,0v1.511c.137,0,.262,0,.388,0a1.369,1.369,0,0,0,1.391-1.393q0-1.791,0-3.581a1.489,1.489,0,0,0-.048-.371,1.372,1.372,0,0,0-1.408-1.022h-10.806a2.057,2.057,0,0,0-.22.009,1.365,1.365,0,0,0-1.245,1.345c-.005,1.225-.011,2.45,0,3.676a1.3,1.3,0,0,0,.745,1.187A1.912,1.912,0,0,0-433.451,1057.228Zm.923-1.5v.189q0,2.088,0,4.177c0,.4.168.564.56.564h7.207c.385,0,.558-.17.558-.551q0-2.1,0-4.208v-.17Zm8.319-5.776c0-.056.006-.1.006-.138,0-.492,0-.985,0-1.477a1.366,1.366,0,0,0-1.39-1.379q-2.772,0-5.544,0a1.367,1.367,0,0,0-1.39,1.379c0,.492,0,.984,0,1.476,0,.045.006.089.01.138Z" transform="translate(436.14 -1046.048)" fill="#ff6e00"/>
        <path id="Path_160596" data-name="Path 160596" d="M-412.231,1114.094c-.241,0-.482,0-.722,0a.449.449,0,0,1-.469-.445.452.452,0,0,1,.455-.463c.487-.006.974-.007,1.46,0a.449.449,0,0,1,.445.471.447.447,0,0,1-.462.436C-411.759,1114.1-412,1114.094-412.231,1114.094Z" transform="translate(415.4 -1107.338)" fill="#ff6e00"/>
        <path id="Path_160597" data-name="Path 160597" d="M-364.377,1169.011c.392,0,.784,0,1.176,0a.461.461,0,0,1,.5.451.464.464,0,0,1-.5.455q-1.176,0-2.352,0a.464.464,0,0,1-.5-.454.46.46,0,0,1,.5-.452C-365.162,1169.009-364.769,1169.011-364.377,1169.011Z" transform="translate(372.151 -1158.307)" fill="#ff6e00"/>
        <path id="Path_160598" data-name="Path 160598" d="M-364.381,1192.114c-.392,0-.784,0-1.176,0a.459.459,0,0,1-.493-.44.466.466,0,0,1,.485-.468q1.192,0,2.384,0a.464.464,0,0,1,.478.459.457.457,0,0,1-.485.448C-363.587,1192.116-363.984,1192.114-364.381,1192.114Z" transform="translate(372.152 -1178.568)" fill="#ff6e00"/>
      </g>
    </g>
  </g>
</svg>
