<svg xmlns="http://www.w3.org/2000/svg" width="13.636" height="13.66" viewBox="0 0 13.636 13.66">
  <g id="ic-phone" transform="translate(-851.599 -783.558)">
    <path id="Path_4699" data-name="Path 4699" d="M4400.854,4913.82s2.246-.021,2.376,0,.239-.152.521.326.368.065.563,1.02.348,1.02.348,1.324.217.347,0,.694-.217.478-.478.89a2.294,2.294,0,0,0-.325.825c-.022.087,1.432,1.693,1.519,1.823a18.306,18.306,0,0,0,1.628,1.411c.065,0,.3.239.369.217s.933-.846.933-.846l.76-.434a3.138,3.138,0,0,1,2.952,1.28,2.165,2.165,0,0,1,.347,1.194c-.065.434-.347,1.367-.347,1.606s-.065-.065-.413.586-1.368-.022-1.628,0a17.208,17.208,0,0,1-2.6-.759c-.2-.109-2-1.042-2-1.042l-1.345-1.15s-1.194-1.194-1.259-1.28-1.084-1.476-1.084-1.476l-.836-2.062-.618-1.042-.239-1.758.239-.716Z" transform="translate(-3548 -4129.117)" fill="#c1e7ff"/>
    <path id="Icon_feather-phone-call" data-name="Icon feather-phone-call" d="M11.092,3.95a3.062,3.062,0,0,1,2.419,2.419M11.092,1.5A5.658,5.658,0,0,1,15.22,4.158a5.167,5.167,0,0,1,.741,2.2m-.612,4.887v1.837a1.225,1.225,0,0,1-1.335,1.225,12.12,12.12,0,0,1-5.285-1.88A11.943,11.943,0,0,1,5.053,8.758a12.12,12.12,0,0,1-1.88-5.31A1.225,1.225,0,0,1,4.392,2.112H6.229A1.225,1.225,0,0,1,7.454,3.166a7.864,7.864,0,0,0,.429,1.721,1.225,1.225,0,0,1-.276,1.292l-.778.778A9.8,9.8,0,0,0,10.5,10.632l.778-.778a1.225,1.225,0,0,1,1.292-.276,7.864,7.864,0,0,0,1.721.429A1.225,1.225,0,0,1,15.348,11.25Z" transform="translate(848.831 782.5)" fill="none" stroke="#000" stroke-linecap="round" stroke-linejoin="round" stroke-width="0.8"/>
  </g>
</svg>
