<svg xmlns="http://www.w3.org/2000/svg" width="20.184" height="17.305" viewBox="0 0 20.184 17.305">
  <g id="ic_initiate" transform="translate(-1242.759 -386.75)">
    <path id="Path_160642" data-name="Path 160642" d="M1251.482,404.054h-8.176c-.428,0-.543-.115-.543-.542q0-4.976,0-9.951c0-.324.051-.513.479-.687,1.56-.632,3.127-1.247,4.692-1.868l10.445-4.149.1-.037c.371-.145.54-.075.685.288l1.223,3.064,2.483,6.222c.163.408.1.558-.311.721-.706.282-1.409.571-2.119.841a.314.314,0,0,0-.244.349c.009,1.692.005,3.385.005,5.077,0,.068,0,.136,0,.2-.007.337-.137.467-.474.467h-8.237Zm7.913-10.269c-.082,0-.142-.008-.2-.008q-7.706,0-15.412,0c-.195,0-.234.063-.234.243q.008,4.517,0,9.033v.21H1259.4Zm-.876-6.133-13.31,5.289c.673.048,1.332.048,1.99.049.18,0,.365.032.487-.162.031-.048.116-.064.179-.089l3.519-1.4q2.26-.9,4.521-1.793c.28-.11.383-.071.586.161a2.34,2.34,0,0,0,1.936.824c.281-.01.387.042.492.3.275.664.54,1.333.813,2,.026.063.073.148.127.163.271.073.334.262.333.511q0,1.723,0,3.445c0,.076.01.152.017.253l1.826-.729Zm.42,5.333c-.219-.548-.421-1.065-.635-1.576-.019-.045-.117-.077-.18-.081a3.119,3.119,0,0,1-1.98-.849.243.243,0,0,0-.3-.065q-3.109,1.243-6.223,2.476c-.044.018-.084.046-.172.1Z" transform="translate(0 0)" fill="#fff"/>
    <path id="Path_160643" data-name="Path 160643" d="M1258.563,429.368q2.385,0,4.77,0c.31,0,.391.067.494.352a2.328,2.328,0,0,0,1.49,1.484.471.471,0,0,1,.368.491c0,1.081,0,2.161,0,3.241,0,.3-.081.378-.354.475a2.356,2.356,0,0,0-1.507,1.519c-.093.268-.178.335-.461.335q-4.74,0-9.479.006c-.437,0-.47-.036-.634-.451a2.343,2.343,0,0,0-1.443-1.4c-.3-.109-.374-.189-.375-.5q-.007-1.6,0-3.2c0-.324.071-.4.383-.517a2.335,2.335,0,0,0,1.458-1.464c.106-.3.193-.368.506-.369Q1256.168,429.365,1258.563,429.368Zm-.009,7.107q2.2,0,4.4,0a.239.239,0,0,0,.264-.156,3.01,3.01,0,0,1,1.526-1.518.213.213,0,0,0,.144-.229c0-.836-.006-1.672,0-2.507a.24.24,0,0,0-.172-.255,3.015,3.015,0,0,1-1.494-1.5.252.252,0,0,0-.272-.171q-4.4.006-8.805,0a.24.24,0,0,0-.262.159,3.039,3.039,0,0,1-1.508,1.511.257.257,0,0,0-.174.276q.01,1.223,0,2.446a.255.255,0,0,0,.173.274,2.993,2.993,0,0,1,1.49,1.473.3.3,0,0,0,.325.193C1255.646,436.474,1257.1,436.476,1258.554,436.475Z" transform="translate(-7.072 -34.789)" fill="#fff"/>
    <path id="Path_160644" data-name="Path 160644" d="M1277.325,440.273a2.374,2.374,0,1,1,2.365,2.38A2.382,2.382,0,0,1,1277.325,440.273Zm2.372,1.583a1.578,1.578,0,1,0-1.583-1.577A1.574,1.574,0,0,0,1279.7,441.856Z" transform="translate(-28.216 -41.753)" fill="#fff"/>
    <path id="Path_160645" data-name="Path 160645" d="M1311.322,448.8a.592.592,0,1,1,.592-.6A.594.594,0,0,1,1311.322,448.8Zm.054-.811-.087,0c-.053.072-.151.146-.146.213s.108.185.171.186a.26.26,0,0,0,.191-.169C1311.517,448.153,1311.423,448.069,1311.376,447.993Z" transform="translate(-55.484 -49.689)" fill="#fff"/>
    <path id="Path_160646" data-name="Path 160646" d="M1263.866,448.806a.592.592,0,1,1,.6-.588A.6.6,0,0,1,1263.866,448.806Zm.006-.873c-.093.134-.189.213-.181.28a.181.181,0,0,0,.362,0C1264.061,448.146,1263.965,448.067,1263.872,447.932Z" transform="translate(-16.751 -49.69)" fill="#fff"/>
  </g>
</svg>
