<svg xmlns="http://www.w3.org/2000/svg" width="13.537" height="16" viewBox="0 0 13.537 16"><g transform="translate(0 0)"><path d="M-2797.936,98.342a13.093,13.093,0,0,1-4.939-.791,7.215,7.215,0,0,1-1.569-.937,1.746,1.746,0,0,1-.658-1.527,6.714,6.714,0,0,1,1.873-4.5c.338-.358.688-.4.972-.126s.245.629-.086.979a5.762,5.762,0,0,0-1.512,3.249,1.163,1.163,0,0,0,.7,1.381,10.97,10.97,0,0,0,2.047.734,12.363,12.363,0,0,0,6.7-.321,6.334,6.334,0,0,0,1.246-.662.811.811,0,0,0,.36-.8,5.559,5.559,0,0,0-1.355-3.394c-.067-.078-.139-.15-.209-.226-.333-.361-.358-.708-.069-.976a.613.613,0,0,1,.964.144,14.2,14.2,0,0,1,1.238,1.791,6.141,6.141,0,0,1,.66,2.544,2.1,2.1,0,0,1-.951,1.974,7.187,7.187,0,0,1-3.126,1.2C-2796.546,98.229-2797.455,98.289-2797.936,98.342Z" transform="translate(2805.104 -82.342)"/><path d="M-2768.745-4.073a4.311,4.311,0,0,1-4.324-4.314,4.308,4.308,0,0,1,4.3-4.295,4.3,4.3,0,0,1,4.3,4.293A4.308,4.308,0,0,1-2768.745-4.073Zm-.006-7.377a3.08,3.08,0,0,0-3.087,3.029A3.078,3.078,0,0,0-2768.8-5.3a3.077,3.077,0,0,0,3.106-3.049A3.076,3.076,0,0,0-2768.751-11.45Z" transform="translate(2775.531 12.681)"/><path d="M-2753.961,3.343a3.076,3.076,0,0,1,3.058,3.1,3.077,3.077,0,0,1-3.106,3.049,3.079,3.079,0,0,1-3.039-3.116A3.08,3.08,0,0,1-2753.961,3.343Z" transform="translate(2760.741 -2.112)" fill="#c1e7ff"/></g></svg>