<svg xmlns="http://www.w3.org/2000/svg" width="13.593" height="13.005" viewBox="0 0 13.593 13.005"><g transform="translate(-851.599 -784.212)"><path d="M4400.854,4913.82s2.246-.021,2.376,0,.239-.152.521.326.368.065.563,1.02.348,1.02.348,1.324.217.347,0,.694-.217.478-.478.89a2.294,2.294,0,0,0-.325.825c-.022.087,1.432,1.693,1.519,1.823a18.306,18.306,0,0,0,1.628,1.411c.065,0,.3.239.369.217s.933-.846.933-.846l.76-.434a3.138,3.138,0,0,1,2.952,1.28,2.165,2.165,0,0,1,.347,1.194c-.065.434-.347,1.367-.347,1.606s-.065-.065-.413.586-1.368-.022-1.628,0a17.208,17.208,0,0,1-2.6-.759c-.2-.109-2-1.042-2-1.042l-1.345-1.15s-1.194-1.194-1.259-1.28-1.084-1.476-1.084-1.476l-.836-2.062-.618-1.042-.239-1.758.239-.716Z" transform="translate(-3548 -4129.117)" fill="#c1e7ff"/><path d="M6.241,1.712A1.632,1.632,0,0,1,7.85,3.11a7.484,7.484,0,0,0,.407,1.637A1.629,1.629,0,0,1,7.891,6.46l-.56.56A9.4,9.4,0,0,0,10.44,10.13L11,9.571A1.625,1.625,0,0,1,12.715,9.2a7.473,7.473,0,0,0,1.633.407,1.626,1.626,0,0,1,1.4,1.645v1.833a1.625,1.625,0,0,1-1.625,1.63c-.049,0-.1,0-.146-.007H13.97a12.582,12.582,0,0,1-5.46-1.942,12.419,12.419,0,0,1-3.795-3.8A12.576,12.576,0,0,1,2.775,3.49V3.484A1.625,1.625,0,0,1,4.391,1.712ZM10.5,11.032a.4.4,0,0,1-.2-.052A10.2,10.2,0,0,1,6.481,7.155a.4.4,0,0,1,.065-.481L7.324,5.9a.826.826,0,0,0,.184-.869,8.278,8.278,0,0,1-.451-1.809.828.828,0,0,0-.816-.706H4.392a.825.825,0,0,0-.821.9A11.776,11.776,0,0,0,5.389,8.54a11.623,11.623,0,0,0,3.554,3.555,11.782,11.782,0,0,0,5.11,1.82.825.825,0,0,0,.9-.825V11.25s0-.007,0-.01a.825.825,0,0,0-.709-.837,8.268,8.268,0,0,1-1.8-.45.825.825,0,0,0-.871.185l-.776.776A.4.4,0,0,1,10.5,11.032Zm3.535-8.539c.158,0,.362.06.772.5a7.511,7.511,0,0,1,.74.944,5.622,5.622,0,0,1,.808,2.385.4.4,0,0,1-.727.271c-.747-1.087-1.3-1.952-1.64-2.572-.442-.8-.465-1.072-.353-1.285A.45.45,0,0,1,14.038,2.492Zm-1.1,2.176c.234,0,.4.166.623.614A4.176,4.176,0,0,1,13.9,6.292a.4.4,0,0,1-.743.269c-.225-.41-.393-.744-.5-.992-.117-.272-.2-.5-.078-.7A.413.413,0,0,1,12.936,4.668Z" transform="translate(848.831 782.5)"/></g></svg>