<svg xmlns="http://www.w3.org/2000/svg" width="13.501" height="8.593" viewBox="0 0 13.501 8.593">
  <g id="transaction_ic" transform="translate(727.041 -34.185)">
    <path id="Path_160581" data-name="Path 160581" d="M-647.39,36.594c-.452-.448-.906-.893-1.355-1.344a.613.613,0,0,1,.043-.932.61.61,0,0,1,.845.085q.825.821,1.644,1.647c.237.238.473.476.712.712a.615.615,0,0,1,.185.722.622.622,0,0,1-.64.381q-4.845,0-9.689,0a.619.619,0,0,1-.656-.52.61.61,0,0,1,.458-.684.988.988,0,0,1,.241-.02h8.191Z" transform="translate(-68.277)" fill="#0076bf"/>
    <path id="Path_160582" data-name="Path 160582" d="M-724.916,176.923q.408.4.816.8c.181.179.362.358.54.541a.619.619,0,0,1,.015.887.6.6,0,0,1-.872-.01q-1.213-1.206-2.417-2.42a.587.587,0,0,1-.148-.7.61.61,0,0,1,.613-.369q4.853,0,9.705,0a.611.611,0,0,1,.665.618.618.618,0,0,1-.679.606h-8.21Z" transform="translate(0 -136.553)" fill="#0076bf"/>
  </g>
</svg>
