<?xml version="1.0" encoding="UTF-8"?>
<!-- Generator: Adobe Illustrator 25.0.1, SVG Export Plug-In . SVG Version: 6.00 Build 0)  -->
<svg version="1.1" id="Layer_1" xmlns="http://www.w3.org/2000/svg" xmlns:xlink="http://www.w3.org/1999/xlink" x="0px" y="0px" viewBox="0 0 272 70" style="enable-background:new 0 0 272 70;" xml:space="preserve">
<style type="text/css">
	.st0{fill:#0F72BA;}
	.st1{fill:#FEC010;}
</style>
<g>
	<g>
		<path d="M58.5,63.2h-2.4V46.9h2.4V63.2z"/>
		<path d="M60.6,51.6h2.5v11.7h-2.5V51.6z M65.3,55.1c0-0.5-0.1-0.9-0.3-1.1c-0.2-0.2-0.5-0.4-0.9-0.4c-0.4,0-0.7,0.1-0.9,0.4    c-0.2,0.2-0.3,0.6-0.3,1.1l-0.2-1.5c0.2-0.7,0.6-1.3,1-1.6c0.4-0.4,1-0.6,1.5-0.6c0.8,0,1.4,0.3,1.8,0.8c0.4,0.5,0.6,1.3,0.6,2.3    v8.8h-2.4V55.1z"/>
		<path d="M69.2,51.6h5.1v2.3h-5.1V51.6z M71,62.5c-0.5-0.5-0.7-1.3-0.7-2.3v-12h2.4V60c0,0.3,0.1,0.5,0.2,0.7    c0.1,0.2,0.3,0.2,0.6,0.2h0.8v2.4h-1.2C72.2,63.3,71.5,63,71,62.5z"/>
		<path d="M77.5,63c-0.5-0.3-0.9-0.7-1.2-1.3c-0.3-0.6-0.4-1.2-0.4-2v-4.4c0-0.8,0.1-1.5,0.4-2.1c0.3-0.6,0.7-1,1.2-1.3    c0.5-0.3,1.1-0.5,1.9-0.5c0.7,0,1.4,0.1,1.9,0.4c0.5,0.3,0.9,0.7,1.2,1.3c0.3,0.6,0.4,1.2,0.4,2v3.2h-5.2v-1.9h2.8v-1.3    c0-0.5-0.1-0.9-0.3-1.1c-0.2-0.3-0.5-0.4-0.9-0.4c-0.4,0-0.7,0.1-0.9,0.4s-0.3,0.7-0.3,1.2v4.6c0,0.4,0.1,0.8,0.3,1    c0.2,0.2,0.5,0.4,0.9,0.4c0.4,0,0.6-0.1,0.8-0.3c0.2-0.2,0.3-0.5,0.3-0.8v-0.2l2.3,0V60c0,1.1-0.3,1.9-0.9,2.5    c-0.6,0.6-1.5,0.9-2.6,0.9C78.7,63.4,78,63.2,77.5,63z"/>
		<path d="M87.4,59.9c0,0.3,0.1,0.5,0.2,0.7c0.1,0.2,0.3,0.2,0.6,0.2h0.5v2.4h-1c-0.9,0-1.6-0.3-2-0.8c-0.5-0.5-0.7-1.3-0.7-2.3    V46.9h2.4V59.9z"/>
		<path d="M92.7,59.9c0,0.3,0.1,0.5,0.2,0.7c0.1,0.2,0.3,0.2,0.6,0.2h0.5v2.4h-1c-0.9,0-1.6-0.3-2-0.8c-0.5-0.5-0.7-1.3-0.7-2.3    V46.9h2.4V59.9z"/>
		<path d="M95.4,47h2.4v2.4h-2.4V47z M95.4,51.6h2.4v11.7h-2.4V51.6z"/>
		<path d="M100.9,63c-0.4-0.3-0.6-0.6-0.8-1.1c-0.2-0.5-0.3-1.1-0.3-1.8v-5.3c0-0.7,0.1-1.3,0.3-1.8c0.2-0.5,0.5-0.9,0.8-1.2    c0.4-0.3,0.8-0.4,1.3-0.4c0.5,0,1,0.2,1.4,0.6c0.4,0.4,0.8,0.9,1,1.5l-0.2,1.5c0-0.3,0-0.5-0.1-0.8c-0.1-0.2-0.2-0.4-0.4-0.5    c-0.2-0.1-0.4-0.2-0.6-0.2c-0.4,0-0.6,0.1-0.8,0.4c-0.2,0.2-0.3,0.6-0.3,1v4.9c0,0.4,0.1,0.7,0.3,1c0.2,0.2,0.5,0.3,0.8,0.3    c0.2,0,0.4-0.1,0.6-0.2c0.2-0.1,0.3-0.3,0.4-0.5c0.1-0.2,0.1-0.5,0.1-0.7l0.2,1.6c-0.2,0.6-0.5,1.1-0.9,1.5    c-0.4,0.4-0.9,0.5-1.5,0.5C101.7,63.4,101.2,63.3,100.9,63z M100.7,67.1c-0.6-0.6-0.9-1.4-0.9-2.5v-0.4l2.4,0v0.4    c0,0.4,0.1,0.6,0.3,0.8c0.2,0.2,0.5,0.3,0.8,0.3c0.3,0,0.6-0.1,0.8-0.3c0.2-0.2,0.3-0.5,0.3-0.8V51.6h2.4v13.1    c0,0.7-0.1,1.3-0.4,1.8c-0.3,0.5-0.7,0.9-1.2,1.1c-0.5,0.3-1.2,0.4-1.9,0.4C102.2,68,101.3,67.7,100.7,67.1z"/>
		<path d="M110.6,63c-0.5-0.3-0.9-0.7-1.2-1.3c-0.3-0.6-0.4-1.2-0.4-2v-4.4c0-0.8,0.1-1.5,0.4-2.1c0.3-0.6,0.7-1,1.2-1.3    c0.5-0.3,1.1-0.5,1.9-0.5c0.7,0,1.4,0.1,1.9,0.4c0.5,0.3,0.9,0.7,1.2,1.3c0.3,0.6,0.4,1.2,0.4,2v3.2h-5.2v-1.9h2.8v-1.3    c0-0.5-0.1-0.9-0.3-1.1c-0.2-0.3-0.5-0.4-0.9-0.4c-0.4,0-0.7,0.1-0.9,0.4c-0.2,0.3-0.3,0.7-0.3,1.2v4.6c0,0.4,0.1,0.8,0.3,1    c0.2,0.2,0.5,0.4,0.9,0.4c0.4,0,0.6-0.1,0.8-0.3c0.2-0.2,0.3-0.5,0.3-0.8v-0.2l2.3,0V60c0,1.1-0.3,1.9-0.9,2.5    c-0.6,0.6-1.5,0.9-2.6,0.9C111.7,63.4,111.1,63.2,110.6,63z"/>
		<path d="M118,51.6h2.5v11.7H118V51.6z M122.8,55.1c0-0.5-0.1-0.9-0.3-1.1c-0.2-0.2-0.5-0.4-0.9-0.4c-0.4,0-0.7,0.1-0.9,0.4    c-0.2,0.2-0.3,0.6-0.3,1.1l-0.2-1.5c0.2-0.7,0.6-1.3,1-1.6c0.4-0.4,1-0.6,1.5-0.6c0.8,0,1.4,0.3,1.8,0.8c0.4,0.5,0.6,1.3,0.6,2.3    v8.8h-2.4V55.1z"/>
		<path d="M126.6,51.6h5.1v2.3h-5.1V51.6z M128.4,62.5c-0.5-0.5-0.7-1.3-0.7-2.3v-12h2.4V60c0,0.3,0.1,0.5,0.2,0.7    c0.1,0.2,0.3,0.2,0.6,0.2h0.8v2.4h-1.2C129.6,63.3,128.9,63,128.4,62.5z"/>
		<path d="M141,46.9h1.9l3.8,16.3h-2.5l-2.3-11.9l-2.3,11.9h-2.5L141,46.9z M139.7,57.9h4.6v2.3h-4.6V57.9z"/>
		<path d="M150.6,60.1c0,0.4,0.1,0.6,0.3,0.8c0.2,0.2,0.4,0.3,0.8,0.3c0.3,0,0.6-0.1,0.8-0.3c0.2-0.2,0.3-0.5,0.3-0.8l0.2,1.3    c-0.2,0.7-0.5,1.2-0.8,1.5c-0.4,0.3-0.8,0.5-1.3,0.5c-0.8,0-1.5-0.3-1.9-0.8s-0.6-1.3-0.6-2.4v-8.6h2.4V60.1z M152.7,51.6h2.4    v11.7h-2.4V51.6z"/>
		<path d="M156.5,51.6h5.1v2.3h-5.1V51.6z M158.3,62.5c-0.5-0.5-0.7-1.3-0.7-2.3v-12h2.4V60c0,0.3,0.1,0.5,0.2,0.7    c0.1,0.2,0.3,0.2,0.6,0.2h0.8v2.4h-1.2C159.5,63.3,158.7,63,158.3,62.5z"/>
		<path d="M164.7,63c-0.5-0.3-0.9-0.6-1.2-1.1c-0.3-0.5-0.4-1.1-0.4-1.8v-5.5c0-0.7,0.1-1.3,0.4-1.7c0.3-0.5,0.7-0.9,1.2-1.1    c0.5-0.3,1.1-0.4,1.8-0.4c0.7,0,1.3,0.1,1.8,0.4c0.5,0.3,0.9,0.6,1.2,1.1c0.3,0.5,0.4,1.1,0.4,1.7v5.6c0,0.7-0.1,1.3-0.4,1.8    c-0.3,0.5-0.6,0.9-1.2,1.1c-0.5,0.3-1.1,0.4-1.8,0.4C165.8,63.4,165.2,63.3,164.7,63z M167.2,60.8c0.2-0.2,0.2-0.5,0.2-0.8v-5.2    c0-0.3-0.1-0.6-0.2-0.8c-0.2-0.2-0.4-0.3-0.7-0.3c-0.3,0-0.5,0.1-0.7,0.3c-0.2,0.2-0.3,0.5-0.3,0.8V60c0,0.4,0.1,0.6,0.3,0.8    c0.2,0.2,0.4,0.3,0.7,0.3C166.8,61.1,167.1,61,167.2,60.8z"/>
		<path d="M172,51.6h2.5v11.7H172V51.6z M176.7,55.1c0-0.5-0.1-0.9-0.3-1.1c-0.2-0.2-0.5-0.4-0.8-0.4c-0.4,0-0.7,0.1-0.9,0.4    c-0.2,0.2-0.3,0.6-0.3,1.1l-0.2-1.6c0.3-0.7,0.6-1.3,1.1-1.6c0.5-0.4,1-0.6,1.6-0.6c0.5,0,0.9,0.1,1.3,0.3c0.4,0.2,0.6,0.6,0.8,1    c0.2,0.4,0.3,1,0.3,1.6v8.9h-2.4V55.1z M181.5,55.1c0-0.5-0.1-0.9-0.3-1.1c-0.2-0.2-0.5-0.4-0.9-0.4c-0.4,0-0.7,0.1-0.8,0.4    c-0.2,0.2-0.3,0.6-0.3,1.1l-0.3-1.6c0.2-0.7,0.6-1.3,1-1.6c0.5-0.4,1-0.6,1.5-0.6c0.5,0,0.9,0.1,1.3,0.4c0.4,0.2,0.6,0.6,0.8,1    c0.2,0.5,0.3,1,0.3,1.7v8.8h-2.5V55.1z"/>
		<path d="M186.8,62.6c-0.5-0.6-0.7-1.4-0.7-2.5c0-1.3,0.3-2.2,0.9-2.9c0.6-0.7,1.5-1,2.7-1h1.2l0.2,2.1h-1.3    c-0.5,0-0.8,0.2-1.1,0.5c-0.2,0.3-0.4,0.8-0.4,1.4c0,0.4,0.1,0.7,0.3,0.9c0.2,0.2,0.5,0.3,0.8,0.3c0.5,0,0.8-0.1,1-0.4    c0.2-0.3,0.4-0.6,0.4-1.1l0.2,1c0,0.6-0.1,1-0.3,1.4c-0.2,0.4-0.4,0.7-0.8,0.9c-0.3,0.2-0.7,0.3-1.2,0.3    C187.9,63.4,187.2,63.1,186.8,62.6z M190.9,54.8c0-0.4-0.1-0.7-0.3-0.9c-0.2-0.2-0.5-0.3-0.9-0.3c-0.3,0-0.6,0.1-0.8,0.3    c-0.2,0.2-0.3,0.5-0.3,0.9h-2.3c0-1.1,0.3-1.9,0.9-2.5c0.6-0.6,1.4-0.9,2.5-0.9c0.7,0,1.4,0.1,1.9,0.4c0.5,0.3,0.9,0.7,1.2,1.2    c0.3,0.5,0.4,1.1,0.4,1.8v8.4h-2.3V54.8z"/>
		<path d="M194.6,51.6h5.1v2.3h-5.1V51.6z M196.4,62.5c-0.5-0.5-0.7-1.3-0.7-2.3v-12h2.4V60c0,0.3,0.1,0.5,0.2,0.7    c0.1,0.2,0.3,0.2,0.6,0.2h0.8v2.4h-1.2C197.6,63.3,196.9,63,196.4,62.5z"/>
		<path d="M201.4,47h2.4v2.4h-2.4V47z M201.4,51.6h2.4v11.7h-2.4V51.6z"/>
		<path d="M207.3,63c-0.5-0.3-0.9-0.6-1.2-1.1c-0.3-0.5-0.4-1.1-0.4-1.8v-5.5c0-0.7,0.1-1.3,0.4-1.7c0.3-0.5,0.7-0.9,1.2-1.1    c0.5-0.3,1.1-0.4,1.8-0.4c0.7,0,1.3,0.1,1.8,0.4c0.5,0.3,0.9,0.6,1.2,1.1c0.3,0.5,0.4,1.1,0.4,1.7v5.6c0,0.7-0.1,1.3-0.4,1.8    c-0.3,0.5-0.6,0.9-1.2,1.1c-0.5,0.3-1.1,0.4-1.8,0.4C208.4,63.4,207.8,63.3,207.3,63z M209.9,60.8c0.2-0.2,0.2-0.5,0.2-0.8v-5.2    c0-0.3-0.1-0.6-0.2-0.8c-0.2-0.2-0.4-0.3-0.7-0.3c-0.3,0-0.5,0.1-0.7,0.3c-0.2,0.2-0.3,0.5-0.3,0.8V60c0,0.4,0.1,0.6,0.3,0.8    c0.2,0.2,0.4,0.3,0.7,0.3C209.5,61.1,209.7,61,209.9,60.8z"/>
		<path d="M214.6,51.6h2.5v11.7h-2.5V51.6z M219.3,55.1c0-0.5-0.1-0.9-0.3-1.1c-0.2-0.2-0.5-0.4-0.9-0.4c-0.4,0-0.7,0.1-0.9,0.4    c-0.2,0.2-0.3,0.6-0.3,1.1l-0.2-1.5c0.2-0.7,0.6-1.3,1-1.6c0.4-0.4,1-0.6,1.5-0.6c0.8,0,1.4,0.3,1.8,0.8c0.4,0.5,0.6,1.3,0.6,2.3    v8.8h-2.4V55.1z"/>
	</g>
	<g>
		<g>
			<path class="st0" d="M70.7,3.4c-1.2-0.7-2.8-1-4.5-1H62h-2h-3.8v9H62V7.9h3.9c0.9,0,1.6,0.3,2.1,0.8c0.5,0.5,0.7,1.3,0.7,2.3     v21.2c0,1-0.2,1.7-0.7,2.3c-0.5,0.5-1.2,0.8-2.1,0.8H62v-3.5h-5.8v9H60h2h4.2c1.8,0,3.3-0.3,4.5-1c1.2-0.7,2.2-1.6,2.9-2.8     c0.7-1.2,1-2.7,1-4.5V10.7c0-1.8-0.3-3.3-1-4.5C72.9,5,71.9,4.1,70.7,3.4z"/>
			<path class="st0" d="M85.1,2.4l-9,38.3H82l1.4-7.2h8l1.4,7.2h5.9l-9-38.3H85.1z M84.4,28.2L87.4,13l2.9,15.2H84.4z"/>
			<polygon class="st0" points="117.1,7.9 117.1,2.4 98.1,2.4 98.1,7.9 104.7,7.9 104.7,40.8 110.5,40.8 110.5,7.9    "/>
			<path class="st0" d="M125.2,2.4l-9,38.3h5.9l1.4-7.2h8l1.4,7.2h5.9l-9-38.3H125.2z M124.6,28.2l2.9-15.2l2.9,15.2H124.6z"/>
			<path class="st0" d="M155,21.2c-0.9-0.7-2.1-1.3-3.6-2.1c-0.1,0-0.1-0.1-0.2-0.1c-0.1,0-0.1,0-0.2-0.1c-0.2-0.1-0.3-0.2-0.5-0.3     c-0.1-0.1-0.3-0.2-0.5-0.2c-1.1-0.5-2-1-2.6-1.4c-0.6-0.4-1.2-0.9-1.6-1.5c-0.4-0.6-0.6-1.3-0.6-2.2v-2.5c0-1.1,0.3-1.9,0.9-2.5     c0.6-0.6,1.5-0.9,2.7-0.9c1.1,0,1.9,0.3,2.5,1c0.6,0.6,0.9,1.6,0.9,2.8v2l5.8-0.1v-2.1c0-2-0.4-3.6-1.1-5     c-0.7-1.4-1.8-2.4-3.1-3.1s-3-1.1-5-1.1c-2,0-3.7,0.4-5.1,1.1c-1.4,0.7-2.5,1.7-3.2,3.1c-0.7,1.4-1.1,3-1.1,5v2.1     c0,1.9,0.3,3.5,1,4.7c0.7,1.3,1.6,2.3,2.6,3c1,0.7,2.3,1.5,3.8,2.2l0.3,0.2c0.1,0,0.1,0,0.2,0.1c0.1,0,0.1,0,0.2,0.1     c1.1,0.5,2,1,2.7,1.4c0.7,0.4,1.2,0.9,1.6,1.5c0.4,0.6,0.6,1.3,0.6,2.1v3.3c0,1.2-0.3,2.1-0.9,2.7c-0.6,0.6-1.5,1-2.7,1     c-1.2,0-2.1-0.3-2.8-1c-0.6-0.7-1-1.6-1-2.7v-1.9l-5.7,0.1v2c0,2,0.3,3.6,1.1,5c0.7,1.4,1.8,2.4,3.2,3.1c1.4,0.7,3.1,1.1,5.1,1.1     c2,0,3.7-0.4,5.1-1.1c1.4-0.7,2.5-1.8,3.2-3.2c0.7-1.4,1.1-3.1,1.1-5v-3.3c0-1.9-0.3-3.4-1-4.6C156.7,22.8,155.9,21.9,155,21.2z"/>
			<polygon class="st0" points="165.4,2.4 162.6,2.4 162.6,40.8 165.4,40.8 168.4,40.8 179.4,40.8 179.4,35.2 168.4,35.2      168.4,24.5 178.1,24.5 178.1,19 168.4,19 168.4,8 179.4,8 179.4,2.4 168.4,2.4    "/>
			<polygon class="st0" points="185.8,2.4 183,2.4 183,40.8 185.8,40.8 188.8,40.8 199.8,40.8 199.8,35.2 188.8,35.2 188.8,24.5      198.5,24.5 198.5,19 188.8,19 188.8,8 199.8,8 199.8,2.4 188.8,2.4    "/>
			<path class="st0" d="M220.8,6.2c-0.7-1.2-1.6-2.2-2.9-2.8c-1.2-0.7-2.8-1-4.5-1h-4.2h-2h-3.8v38.3h3.8h2h4.2c1.8,0,3.3-0.3,4.5-1     c1.2-0.7,2.2-1.6,2.9-2.8c0.7-1.2,1-2.7,1-4.5V10.7C221.8,9,221.4,7.5,220.8,6.2z M215.9,32.2c0,1-0.2,1.7-0.7,2.3     c-0.5,0.5-1.2,0.8-2.1,0.8h-3.9V7.9h3.9c0.9,0,1.6,0.3,2.1,0.8c0.5,0.5,0.7,1.3,0.7,2.3V32.2z"/>
		</g>
		<g>
			<path class="st1" d="M59.3,30.3c-0.4,0.4-1,0.4-1.4,0.1c-0.6-0.4-0.7-1.1-0.3-1.7c0.1-0.1,0.1-0.2,0.2-0.2c0.4-0.5,0.6-1,0.6-1.6     c0-0.5-0.2-1-0.5-1.4c-0.1-0.1-0.1-0.2-0.2-0.2c-0.3-0.4-0.4-0.8-0.2-1.2c0.2-0.5,0.7-0.8,1.1-0.8c0.3,0,0.5,0.1,0.7,0.3     c0.4,0.4,0.5,1,0.2,1.5c-0.1,0.1-0.1,0.2-0.2,0.3c-0.7,0.7-0.9,1.6-0.5,2.5c0.1,0.3,0.3,0.6,0.5,0.8c0.3,0.3,0.4,0.7,0.3,1.2     C59.5,30,59.4,30.1,59.3,30.3z"/>
			<path class="st1" d="M59.3,19.6c-0.4,0.4-1,0.4-1.4,0.1c-0.6-0.4-0.7-1.1-0.3-1.7c0.1-0.1,0.1-0.2,0.2-0.2c0.4-0.5,0.6-1,0.6-1.6     c0-0.5-0.2-1-0.5-1.4c-0.1-0.1-0.1-0.2-0.2-0.2c-0.3-0.4-0.4-0.8-0.2-1.2c0.2-0.5,0.7-0.8,1.1-0.8c0.3,0,0.5,0.1,0.7,0.3     c0.4,0.4,0.5,1,0.2,1.5c-0.1,0.1-0.1,0.2-0.2,0.3c-0.7,0.7-0.9,1.6-0.5,2.5c0.1,0.3,0.3,0.6,0.5,0.8c0.3,0.3,0.4,0.7,0.3,1.2     C59.5,19.3,59.4,19.4,59.3,19.6z"/>
			<path class="st1" d="M54.1,27.4c-0.4-0.4-0.5-1.1-0.1-1.6c0.1-0.1,0.2-0.2,0.3-0.4c0.3-0.4,0.4-0.8,0.4-1.2     c0-0.5-0.1-0.9-0.3-1.3c-0.1-0.2-0.2-0.3-0.4-0.5c-0.1-0.1-0.2-0.3-0.3-0.5c-0.1-0.4-0.1-0.7,0.1-1c0.3-0.4,0.6-0.5,1.1-0.5     c0.3,0,0.6,0.2,0.8,0.4c0.3,0.4,0.3,0.8,0.2,1.2c-0.1,0.1-0.1,0.3-0.3,0.4c-0.3,0.3-0.5,0.6-0.6,1C55,24,55,24.6,55.3,25.2     c0.1,0.2,0.3,0.4,0.5,0.6c0.4,0.4,0.4,1,0.1,1.4c-0.3,0.5-0.9,0.6-1.4,0.4C54.4,27.6,54.2,27.5,54.1,27.4z"/>
			<path class="st1" d="M62.8,15.8c0.4,0.4,0.5,1,0.1,1.5c-0.1,0.1-0.2,0.2-0.3,0.3c-0.3,0.3-0.5,0.7-0.5,1.1     c-0.1,0.4,0,0.8,0.1,1.2c0.1,0.3,0.2,0.5,0.4,0.7c0.1,0.1,0.2,0.2,0.2,0.2c0.3,0.4,0.4,0.8,0.1,1.2c-0.2,0.5-0.6,0.7-1.1,0.7     c-0.3,0-0.5-0.1-0.7-0.3c-0.2-0.2-0.3-0.4-0.4-0.7c-0.1-0.4,0-0.7,0.3-1c0.1-0.2,0.3-0.3,0.4-0.5c0.2-0.3,0.3-0.7,0.4-1.1     c0-0.4,0-0.8-0.2-1.2c-0.1-0.2-0.3-0.5-0.5-0.7c-0.2-0.2-0.4-0.5-0.3-0.9c0-0.5,0.4-1,0.9-1.1c0.4-0.1,0.7,0,1,0.2     C62.7,15.7,62.8,15.8,62.8,15.8z"/>
			<path class="st1" d="M50.6,22.4c-0.5-0.4-0.5-1.2,0-1.7c0.5-0.5,1.2-0.5,1.7,0c0.4,0.4,0.5,1.2,0,1.6     C51.7,22.9,51,22.9,50.6,22.4z"/>
			<path class="st1" d="M57.6,22.4c-0.5-0.4-0.5-1.2,0-1.7c0.5-0.5,1.2-0.5,1.7,0c0.4,0.4,0.5,1.2,0,1.6     C58.8,22.9,58.1,22.9,57.6,22.4z"/>
			<path class="st1" d="M61.2,26c-0.5-0.4-0.5-1.2,0-1.7c0.5-0.5,1.2-0.5,1.7,0c0.4,0.4,0.5,1.2,0,1.6C62.3,26.5,61.6,26.4,61.2,26z     "/>
			<path class="st1" d="M54.1,18.8c-0.5-0.4-0.5-1.2,0-1.7c0.5-0.5,1.2-0.5,1.7,0c0.4,0.4,0.5,1.2,0,1.6     C55.3,19.3,54.5,19.3,54.1,18.8z"/>
			<path class="st1" d="M66.3,20.8c0.4,0.4,0.5,1.2,0,1.7c-0.5,0.5-1.2,0.5-1.6,0c-0.5-0.5-0.5-1.2,0-1.7     C65.2,20.3,65.9,20.3,66.3,20.8z"/>
		</g>
	</g>
</g>
</svg>