<svg xmlns="http://www.w3.org/2000/svg" width="24" height="24" viewBox="0 0 24 24">
  <path id="search" d="M10.113.016a8.844,8.844,0,0,1,2.18.4,9.82,9.82,0,0,1,5.157,3.85,8.772,8.772,0,0,1,.5.851,9.791,9.791,0,0,1-1.391,10.736l7.074,7.1c.237.238.49.6.3.876-.24.361-.8.066-1.1-.241L15.866,16.56a9.75,9.75,0,0,1-11.1,1.2A9.808,9.808,0,0,1,.181,7.558,9.724,9.724,0,0,1,4.236,1.606,9.555,9.555,0,0,1,10.113.016M18,9.488a8.507,8.507,0,1,0-8.514,8.528A8.513,8.513,0,0,0,18,9.488" transform="translate(0 0)" fill="#0774bb"/>
</svg>
