<svg xmlns="http://www.w3.org/2000/svg" width="28" height="28" viewBox="0 0 28 28">
  <g id="Group_334" data-name="Group 334" transform="translate(-586 -851)">
    <path id="Path_6667" data-name="Path 6667" d="M25.362.057a1.785,1.785,0,0,1,.42.126,1.644,1.644,0,0,1,.39.239,1.652,1.652,0,0,1,.491,1.853c-.081.221-.181.437-.28.652-.052.113-.074.191.083.243a.4.4,0,0,1,.295.44c-.012.124.059.154.149.19.23.093.459.189.687.287.419.178.492.359.313.77q-1.249,2.865-2.5,5.729c-.266.609-.53,1.218-.8,1.824a.431.431,0,0,1-.713.182.463.463,0,0,1-.051-.578q.949-2.162,1.891-4.327c.39-.892.773-1.787,1.173-2.675.087-.193.08-.3-.141-.347a.344.344,0,0,1-.1-.044c-.186-.113-.284-.085-.379.136-.645,1.505-1.308,3-1.965,4.5q-3.028,6.913-6.055,13.826a1.22,1.22,0,0,1-.3.419q-1.217,1.118-2.425,2.245A.962.962,0,0,1,14.431,26a.94.94,0,0,1-.592-.959q.007-1.667,0-3.334a1.255,1.255,0,0,1,.134-.522q3.21-7.325,6.422-14.649a1.192,1.192,0,0,0,.1-.5c0-1.239,0-2.478,0-3.716A1.315,1.315,0,0,0,19.021.869q-5.616,0-11.231,0c-1.83,0-3.661,0-5.491,0A1.305,1.305,0,0,0,.883,1.948a1.945,1.945,0,0,0-.02.354q0,11.709,0,23.418A1.307,1.307,0,0,0,2.3,27.147q8.375,0,16.75,0a1.306,1.306,0,0,0,1.437-1.431q0-2.828,0-5.656a.607.607,0,0,1,.077-.394.414.414,0,0,1,.407-.181.392.392,0,0,1,.353.3,1.47,1.47,0,0,1,.027.325q0,2.787,0,5.575A2.169,2.169,0,0,1,19,28H2.334A2.157,2.157,0,0,1,0,25.723Q0,14.014,0,2.3A2.179,2.179,0,0,1,.732.56,2.649,2.649,0,0,1,1.874.042,3.2,3.2,0,0,1,2.54,0c.405,0,.81.012,1.216.012H14.789c1.067,0,2.14.032,3.205,0a3.8,3.8,0,0,1,2.512.467,1.926,1.926,0,0,1,.673.839,2.5,2.5,0,0,1,.176.918c.008.581,0,1.163,0,1.745,0,.062-.029.139.06.2.27-.618.536-1.223.8-1.828.123-.283.314-.536.632-.541.342-.005.422-.209.513-.446.036-.093.08-.183.119-.275a1.83,1.83,0,0,1,.455-.646,1.566,1.566,0,0,1,.327-.229,1.747,1.747,0,0,1,1.1-.164M21.936,12.543c0-.087-.084-.089-.136-.111-.8-.344-1.607-.681-2.406-1.03-.158-.069-.2,0-.25.119q-2.108,4.822-4.227,9.64c-.07.159-.037.214.113.276.78.324,1.559.652,2.332.99.165.072.229.051.3-.115q2.1-4.811,4.21-9.617c.022-.05.041-.1.062-.151m.32-.848c.1.019.091-.087.114-.14q1.669-3.794,3.333-7.59c.064-.145.032-.19-.111-.25q-1.171-.484-2.331-.995c-.174-.077-.241-.059-.318.117q-1.633,3.75-3.282,7.493c-.072.163-.074.239.118.317.782.318,1.556.657,2.333.988l.143.059M17.02,23.206c-.738-.315-1.448-.617-2.155-.922-.171-.074-.158.032-.158.139,0,.864,0,1.729.006,2.593,0,.067-.036.156.051.194s.133-.039.184-.087l2.071-1.917m8-22.332a.788.788,0,0,0-.7.47c-.1.2-.173.4-.271.6-.063.124-.053.188.092.239.225.08.434.207.662.27.253.071.509.4.736.2a1.488,1.488,0,0,0,.348-.785.829.829,0,0,0-.867-.993" transform="translate(586 851)" fill="#0774bb"/>
    <path id="Path_6668" data-name="Path 6668" d="M78.2,32.494h4.27c.647,0,.921.279.923.936,0,.429.006.857,0,1.285a.744.744,0,0,1-.79.811c-.619.013-1.238.009-1.858,0a.425.425,0,0,1-.474-.431c0-.266.185-.431.5-.433.518,0,1.035-.007,1.553,0,.164,0,.23-.032.221-.213-.016-.307-.009-.615,0-.922,0-.121-.037-.173-.157-.16a1.341,1.341,0,0,1-.139,0q-4.076,0-8.152,0c-.211,0-.292.044-.273.27a5.385,5.385,0,0,1,0,.782c-.012.193.043.25.241.248,1.312-.009,2.625,0,3.937,0,.2,0,.407,0,.61,0a.436.436,0,1,1,0,.865c-.73.007-1.46,0-2.191,0-.85,0-1.7,0-2.551,0-.633,0-.912-.286-.914-.919q0-.6,0-1.2c0-.628.289-.914.921-.915H78.2" transform="translate(518.458 820.934)" fill="#0774bb"/>
    <path id="Path_6669" data-name="Path 6669" d="M54.138,98.121H47.621c-.092,0-.185,0-.277,0a.432.432,0,0,1-.406-.417.427.427,0,0,1,.387-.433,2.263,2.263,0,0,1,.277-.009H60.663a2.106,2.106,0,0,1,.3.012.394.394,0,0,1,.36.425.4.4,0,0,1-.368.42,1.836,1.836,0,0,1-.277.007H54.138" transform="translate(542.542 760.842)" fill="#0774bb"/>
    <path id="Path_6670" data-name="Path 6670" d="M54.175,134.775H47.658a1.837,1.837,0,0,1-.277-.006.4.4,0,0,1-.368-.42.394.394,0,0,1,.359-.425,1.885,1.885,0,0,1,.277-.01H60.765c.046,0,.092,0,.139,0,.31.01.505.182.5.44s-.2.42-.517.42q-3.355,0-6.711,0" transform="translate(542.472 726.861)" fill="#0774bb"/>
    <path id="Path_6671" data-name="Path 6671" d="M52.622,171.371H47.661a1.807,1.807,0,0,1-.277-.007.4.4,0,0,1-.37-.418.4.4,0,0,1,.356-.427,1.754,1.754,0,0,1,.276-.014h10c.436,0,.647.139.652.427s-.207.44-.664.44H52.622" transform="translate(542.471 692.941)" fill="#0774bb"/>
    <path id="Path_6672" data-name="Path 6672" d="M43.9,303.357a2.308,2.308,0,0,1,1.456.522c.195.156.384.321.589.463a1.34,1.34,0,0,0,2.021-.362c.058-.083.1-.175.164-.258a.428.428,0,0,1,.733.441,2.194,2.194,0,0,1-3.144,1.056,4.729,4.729,0,0,1-.829-.6,1.468,1.468,0,0,0-2.393.577c-.125.28-.329.38-.571.282a.441.441,0,0,1-.227-.6,2.3,2.3,0,0,1,2.2-1.519" transform="translate(547.424 569.669)" fill="#0774bb"/>
    <path id="Path_6673" data-name="Path 6673" d="M50.048,208.026q-1.287,0-2.575,0c-.331,0-.532-.168-.53-.434s.2-.428.536-.429q2.588,0,5.177,0c.347,0,.534.151.539.421s-.189.442-.546.442h-2.6" transform="translate(542.537 658.96)" fill="#0774bb"/>
  </g>
</svg>
