<svg xmlns="http://www.w3.org/2000/svg" width="47.05" height="47.05" viewBox="0 0 47.05 47.05">
  <path id="Path_6716" data-name="Path 6716" d="M.192,15.621a.951.951,0,0,1,.765-.259q2.6,0,5.2,0c2.958,0,5.915,0,8.873.008.3,0,.348-.087.347-.36q-.013-6.948-.006-13.9c0-.133,0-.267.008-.4A.761.761,0,0,1,16.9.721c.01.12.007.242.007.363q0,6.948-.008,13.9c0,.322.077.39.393.39q6.927-.017,13.854-.007a3.465,3.465,0,0,1,.472.015.762.762,0,0,1,0,1.507,2.5,2.5,0,0,1-.363.013q-6.982,0-13.963-.007c-.3,0-.4.048-.4.383q.021,6.966.009,13.932c0,.719-.235,1.049-.754,1.058s-.781-.332-.781-1.067q0-6.965.007-13.931c0-.3-.059-.377-.368-.376Q7.974,16.907.937,16.9C.2,16.9-.2,16.369.1,15.773a1.475,1.475,0,0,1,.094-.152" transform="translate(23.528 0.714) rotate(45)" stroke="#000" stroke-width="1"/>
</svg>
