<svg xmlns="http://www.w3.org/2000/svg" width="28.018" height="28.018" viewBox="0 0 28.018 28.018">
  <g id="user" transform="translate(-295.871 -900.774)">
    <path id="Path_6616" data-name="Path 6616" d="M27.972,12.922a12.657,12.657,0,0,0-.89-3.928,15.323,15.323,0,0,0-6.221-7.214,13.587,13.587,0,0,0-4.4-1.564C15.92.126,15.377.071,14.836,0h-1.7c-.611.088-1.227.151-1.833.267A14.01,14.01,0,1,0,27.8,16.424c.084-.511.143-1.026.213-1.539V13.134a1.465,1.465,0,0,1-.046-.212m-6.9,11.906A12.922,12.922,0,0,1,6.68,24.646a.436.436,0,0,1-.2-.516,7.661,7.661,0,0,1,15.006-.34c.156.669.156.669-.41,1.038m5.805-9.8A12.653,12.653,0,0,1,22.771,23.5c-.056.052-.12.095-.192.151a8.621,8.621,0,0,0-7.94-6.86c-4.829-.185-7.8,2.322-9.242,6.825-.041-.035-.105-.084-.163-.14a12.535,12.535,0,0,1-3.7-12.684A12.86,12.86,0,0,1,17.1,1.464a13.163,13.163,0,0,1,9.04,8.109,12.8,12.8,0,0,1,.735,5.452" transform="translate(295.871 900.774)" fill="#0774bb"/>
    <path id="Path_6617" data-name="Path 6617" d="M128.941,79.354a4.459,4.459,0,1,1-4.477,4.441,4.466,4.466,0,0,1,4.477-4.441m-.008,7.927a3.468,3.468,0,1,0-3.478-3.452,3.476,3.476,0,0,0,3.478,3.452" transform="translate(180.963 827.519)" fill="#0774bb"/>
  </g>
</svg>
