<svg xmlns="http://www.w3.org/2000/svg" width="28" height="28" viewBox="0 0 28 28">
  <g id="Group_333" data-name="Group 333" transform="translate(-582.776 -853.112)">
    <path id="Path_6644" data-name="Path 6644" d="M22.59,28H3.377c-.012-.07-.081-.07-.127-.09a1.261,1.261,0,0,1-.841-1.239c0-.228,0-.455,0-.683,0-.392,0-.392-.392-.392H1.48A1.321,1.321,0,0,1,0,24.18Q0,16.245,0,8.309,0,4.867,0,1.425A1.319,1.319,0,0,1,.643.2,2.028,2.028,0,0,1,1.756.006h4.56c.172.149.321.311.222.557s-.323.266-.561.265Q3.787.822,1.6.826C.972.826.85.942.85,1.538Q.85,12.8.85,24.06c0,.082,0,.164,0,.246a.475.475,0,0,0,.514.468c.245.005.492-.019.734.007.27.028.315-.076.314-.314-.006-6.87,0-13.739-.016-20.609A1.418,1.418,0,0,1,3.9,2.4c5.386.021,10.772.011,16.159.011a1.426,1.426,0,0,1,.169,0c.144.017.2-.031.195-.18-.011-.245,0-.492,0-.738,0-.529-.141-.667-.681-.667H8.159A.409.409,0,0,1,7.738.564.386.386,0,0,1,7.888.08c.027-.02.072-.026.067-.074H18.684A5.456,5.456,0,0,1,20.51.156a1.255,1.255,0,0,1,.758,1.165c.009.273.014.547,0,.819-.012.2.033.3.269.273s.47-.005.706,0A1.3,1.3,0,0,1,23.664,3.79q0,1.667,0,3.333a.733.733,0,0,0,.113.409,5.754,5.754,0,0,1,.275,5.884.257.257,0,0,0,.067.366q.549.511,1.078,1.043a.393.393,0,0,1,.015.587.432.432,0,0,1-.607,0c-.071-.059-.135-.127-.2-.192l-.92-.9a5.979,5.979,0,0,1-1.125,1.1c-.154.111-.068.166.015.246q1.608,1.554,3.216,3.109a.9.9,0,0,0,1.305.043.839.839,0,0,0-.054-1.244c-.269-.268-.55-.525-.816-.8a.39.39,0,0,1-.018-.586.424.424,0,0,1,.6,0c.338.316.684.629.989.974a1.52,1.52,0,0,1,.323,1.511,1.743,1.743,0,0,1-2.871.731c-.459-.423-.894-.87-1.389-1.355v.367q0,4.071,0,8.142a1.981,1.981,0,0,1-.031.407A1.374,1.374,0,0,1,22.59,28m.226-21.625c0-.871,0-1.682,0-2.492,0-.516-.138-.652-.661-.652H3.9c-.509,0-.648.136-.648.634q0,3.54,0,7.08,0,7.8,0,15.608c0,.458.151.627.573.627q9.21,0,18.42,0c.39,0,.565-.173.566-.555q0-4.592,0-9.184a.414.414,0,0,0-.151-.329c-.337-.318-.674-.637-1-.968a.275.275,0,0,0-.381-.059,6.205,6.205,0,0,1-3.7.582,6.022,6.022,0,0,1-5.236-6.842A6.209,6.209,0,0,1,20.1,4.895a6.441,6.441,0,0,1,2.714,1.479M13.138,10.72a5.372,5.372,0,0,0,10.739-.029,5.282,5.282,0,0,0-5.389-5.168,5.262,5.262,0,0,0-5.349,5.2" transform="translate(582.776 853.113)" fill="#0774bb"/>
    <path id="Path_6645" data-name="Path 6645" d="M74.981,221.6a5.555,5.555,0,0,1,.37,1.492,4.771,4.771,0,0,1-1.37,3.839.312.312,0,0,0-.07.428,6,6,0,0,1,.3.7.3.3,0,0,0,.334.218c1.338-.008,2.675,0,4.013,0a2.1,2.1,0,0,1,.282.007.379.379,0,0,1,.352.348.4.4,0,0,1-.253.455.774.774,0,0,1-.333.04c-1.46,0-2.92-.007-4.38.005a.61.61,0,0,1-.662-.441c-.131-.35-.3-.685-.458-1.038a4.932,4.932,0,0,1-2.7.745,4.854,4.854,0,0,1-.752-9.628,4.718,4.718,0,0,1,4.7,1.815.423.423,0,0,0,.378.173c1.366-.006,2.732,0,4.1,0a2.094,2.094,0,0,1,.254,0,.411.411,0,0,1,.381.443.393.393,0,0,1-.4.4c-.15.013-.3,0-.452,0H74.981m-1.594-.849a3.994,3.994,0,0,0-6.858,3.016,4.048,4.048,0,0,0,3.252,3.711c.215.041.33.045.325-.253-.021-1.179-.01-2.359-.008-3.539,0-.442.131-.569.576-.57,1.2,0,2.393-.006,3.589,0,.218,0,.253-.066.211-.259a5.055,5.055,0,0,0-.347-1.072.272.272,0,0,0-.293-.2c-.357.016-.716.01-1.074,0a.413.413,0,0,1-.442-.414.419.419,0,0,1,.427-.431c.195-.01.39,0,.64,0m.049,5.523a4.043,4.043,0,0,0,1.046-2.128c.023-.129,0-.183-.15-.182q-1.6.009-3.193,0c-.144,0-.2.038-.194.19q.009,1.585,0,3.171c0,.158.051.193.2.17a4.035,4.035,0,0,0,1.5-.556c.1-.063.115-.119.062-.228-.124-.253-.239-.511-.342-.774a.424.424,0,0,1,.214-.572.416.416,0,0,1,.56.233c.1.21.193.428.3.676" transform="translate(522.063 649.939)" fill="#0774bb"/>
    <path id="Path_6646" data-name="Path 6646" d="M68.841,143.706h-2.4a1.677,1.677,0,0,1-.281-.014.416.416,0,0,1,0-.822,1.4,1.4,0,0,1,.253-.013H71.3a1.554,1.554,0,0,1,.225.008.4.4,0,0,1,.378.417.392.392,0,0,1-.378.415,2.213,2.213,0,0,1-.282.01h-2.4" transform="translate(521.935 720.664)" fill="#0774bb"/>
    <path id="Path_6647" data-name="Path 6647" d="M68.8,79.9c-.837,0-1.674,0-2.511,0-.34,0-.529-.147-.539-.406s.2-.443.536-.443q2.512,0,5.023,0c.346,0,.546.171.538.44s-.2.408-.535.409c-.837,0-1.674,0-2.511,0" transform="translate(521.994 779.824)" fill="#0774bb"/>
    <path id="Path_6648" data-name="Path 6648" d="M68.8,176.92q1.256,0,2.512,0c.329,0,.524.159.526.417s-.194.431-.518.432q-2.526,0-5.052,0c-.326,0-.524-.166-.527-.424s.2-.424.52-.424c.847,0,1.694,0,2.54,0" transform="translate(521.997 689.081)" fill="#0774bb"/>
    <path id="Path_6649" data-name="Path 6649" d="M68.8,111.017q1.256,0,2.512,0c.333,0,.526.151.534.41s-.194.439-.537.439q-2.512,0-5.025,0c-.342,0-.546-.173-.535-.442s.2-.406.538-.406q1.256,0,2.512,0" transform="translate(521.993 750.183)" fill="#0774bb"/>
    <path id="Path_6650" data-name="Path 6650" d="M239.014,304.951c.423,0,.846,0,1.268,0,.319,0,.493.151.5.411s-.17.433-.48.436q-1.3.011-2.593,0a.426.426,0,1,1,.011-.846c.432,0,.864,0,1.3,0" transform="translate(363.46 570.377)" fill="#0774bb"/>
    <path id="Path_6651" data-name="Path 6651" d="M239.02,277.328c.432,0,.865,0,1.3,0,.293,0,.465.16.469.411a.418.418,0,0,1-.453.435q-1.325.012-2.65,0a.43.43,0,0,1-.446-.446.423.423,0,0,1,.458-.4c.442-.006.883,0,1.325,0" transform="translate(363.455 595.989)" fill="#0774bb"/>
    <path id="Path_6652" data-name="Path 6652" d="M190.428,87.749a4.473,4.473,0,1,1-4.473,4.463,4.463,4.463,0,0,1,4.473-4.463M186.8,92.216a3.616,3.616,0,1,0,3.628-3.617,3.617,3.617,0,0,0-3.628,3.617" transform="translate(410.862 771.66)" fill="#0774bb"/>
    <path id="Path_6653" data-name="Path 6653" d="M217.513,126.1l2.19-2.113a2.054,2.054,0,0,1,.165-.154.408.408,0,0,1,.582.039.4.4,0,0,1,0,.563,3.269,3.269,0,0,1-.239.24q-1.2,1.159-2.4,2.317c-.39.375-.637.327-.883-.166-.218-.438-.438-.874-.651-1.314a.436.436,0,0,1,.161-.63.441.441,0,0,1,.6.254c.158.309.308.622.476.964" transform="translate(382.895 738.365)" fill="#0774bb"/>
  </g>
</svg>
