<svg xmlns="http://www.w3.org/2000/svg" width="62" height="62" viewBox="0 0 62 62">
  <path id="Path_6710" data-name="Path 6710" d="M29.232.053A31.072,31.072,0,0,1,49.675,6.226a31.486,31.486,0,0,1,5.98,6.03,30.2,30.2,0,0,1,6.052,22.939,30.041,30.041,0,0,1-6.313,14.9A30.994,30.994,0,0,1,37.4,61.324,30.866,30.866,0,0,1,6.331,49.617,31.308,31.308,0,0,1,1.2,38.611,32.252,32.252,0,0,1,.008,29.628a29.116,29.116,0,0,1,1.848-8.9,31.164,31.164,0,0,1,26-20.564q.685-.072,1.374-.112M7.6,47.763A25.14,25.14,0,0,1,22.061,32.693a13.3,13.3,0,0,1-4.416-9.737,12.813,12.813,0,0,1,4.11-9.866,13.294,13.294,0,0,1,17.8-.72,12.951,12.951,0,0,1,4.741,8.382A13.4,13.4,0,0,1,40.03,32.721,24.946,24.946,0,0,1,54.486,47.812,28.869,28.869,0,1,0,7.6,47.763M31.048,59.969c.832-.047,1.717-.094,2.6-.15.281-.018.56-.062.84-.1A28.637,28.637,0,0,0,52.643,50.2a.76.76,0,0,0,.166-.858A22.54,22.54,0,0,0,38.541,34.4a1.3,1.3,0,0,0-.941.068,13.337,13.337,0,0,1-13.067,0,1.115,1.115,0,0,0-1.015-.084A22.674,22.674,0,0,0,9.27,49.358a.8.8,0,0,0,.232.9,28.9,28.9,0,0,0,21.546,9.713m-.024-25.917A11.336,11.336,0,1,0,19.686,22.706,11.342,11.342,0,0,0,31.024,34.052" transform="translate(0 -0.001)" fill="#666"/>
</svg>
