<svg xmlns="http://www.w3.org/2000/svg" width="24" height="24" viewBox="0 0 24 24">
  <path id="User" d="M0,21.2c.107-.585.174-1.179.327-1.752a10.05,10.05,0,0,1,3.6-5.332,12.207,12.207,0,0,1,4.456-2.241c.084-.023.166-.055.292-.1A6.209,6.209,0,0,1,5.358,5.9,5.951,5.951,0,0,1,7.722,1.473a6.937,6.937,0,0,1,9.349.736,6.16,6.16,0,0,1-1.729,9.56c.5.17,1.007.315,1.489.508a10.922,10.922,0,0,1,6.755,6.873,9.357,9.357,0,0,1,.407,2.771c.009.463.012.927,0,1.391a.637.637,0,0,1-.526.667.625.625,0,0,1-.719-.329,1.442,1.442,0,0,1-.086-.525,14.667,14.667,0,0,0-.185-2.968,8.386,8.386,0,0,0-1.732-3.572,10.539,10.539,0,0,0-6.619-3.757,11.471,11.471,0,0,0-9.632,2.487A8.392,8.392,0,0,0,1.4,20.883c-.1.8-.05,1.625-.074,2.438a.632.632,0,0,1-.85.636c-.189-.071-.318-.283-.475-.431V21.2M6.662,6.324a5.228,5.228,0,0,0,5.348,5.044A5.21,5.21,0,0,0,17.32,6.3,5.194,5.194,0,0,0,11.98,1.26,5.205,5.205,0,0,0,6.662,6.324" transform="translate(0 0)" fill="#0774bb"/>
</svg>
