<svg xmlns="http://www.w3.org/2000/svg" width="30" height="18" viewBox="0 0 30 18">
  <g id="Group_327" data-name="Group 327" transform="translate(-403 -753)">
    <path id="Path_6627" data-name="Path 6627" d="M296.693,60.538c-.155.175-.311.347-.581.239s-.283-.331-.282-.572q0-2.158,0-4.316c0-.12-.011-.239-.02-.41-.542.486-1.026.893-.974,1.695.066,1.022.024,2.052.007,3.078a.7.7,0,0,1-.2.472c-.267.229-.641.011-.653-.369-.014-.422,0-.844,0-1.266,0-.71.011-1.42,0-2.129a1.96,1.96,0,0,1,.638-1.542c.2-.189.414-.366.654-.577l-2.626-1.322c-.31.317-.638.638-.945.978a.517.517,0,0,0-.074.318c0,1.775,0,3.549,0,5.324a1.454,1.454,0,0,1-.036.369.382.382,0,0,1-.432.3.4.4,0,0,1-.382-.367,2.1,2.1,0,0,1-.009-.287c0-1.765,0-3.53,0-5.295a.619.619,0,0,0-.21-.5c-.285-.269-.551-.558-.828-.843-.105.051-.188.1-.274.132a.382.382,0,0,1-.5-.149.362.362,0,0,1,.063-.54c.412-.25.381-.629.362-1.013a.37.37,0,0,0-.1-.221,2.767,2.767,0,0,1-.814-2.137c.006-.161.028-.317-.211-.364a.368.368,0,0,1-.224-.267,4.221,4.221,0,0,1,.244-2.2,2.7,2.7,0,0,1,2.514-1.564,5.9,5.9,0,0,1,1.483.091A2.693,2.693,0,0,1,294.391,48c0,.23,0,.46,0,.691,0,.383-.073.481-.438.61-.02.292-.028.588-.064.881a2.612,2.612,0,0,1-.735,1.495.867.867,0,0,0,.207,1.234c.647.331,1.29.673,1.952.971a2.189,2.189,0,0,1,1.379,1.535Zm-3.641-11.3c-.089-.017-.164-.027-.237-.045a19.547,19.547,0,0,1-1.985-.534,1.074,1.074,0,0,0-.917.072c-.621.257-.618.684-.576,1.208a1.872,1.872,0,0,0,2.68,1.507,2.013,2.013,0,0,0,1.036-2.207m.445-.849a1.884,1.884,0,0,0-1.393-2.265,5.828,5.828,0,0,0-1.625-.037,1.851,1.851,0,0,0-1.558,2.269c.32-.216.629-.4.908-.621.359-.285.422-.3.817-.1a6.218,6.218,0,0,0,.6.276,6.931,6.931,0,0,0,2.252.477m-1.389,3.96a3.03,3.03,0,0,1-1.9-.016c.025.211-.011.409.071.506.277.326.6.616.931.95.255-.268.478-.533.733-.762a.528.528,0,0,0,.162-.677" transform="translate(136.307 710.185)" fill="#0774bb"/>
    <path id="Path_6628" data-name="Path 6628" d="M116.319,11.186c.449.428.849.82,1.263,1.2a1.918,1.918,0,0,1,.661,1.517c-.015,1.161,0,2.323-.005,3.484,0,.1.027.23-.026.294-.1.124-.246.281-.387.295-.125.012-.3-.127-.394-.243a.652.652,0,0,1-.053-.372c0-1.143-.012-2.286,0-3.429a1.227,1.227,0,0,0-.438-1c-.32-.286-.613-.6-.918-.9l-.079.026c0,.091-.013.182-.013.274q0,2.469,0,4.938c0,.073,0,.146,0,.219-.008.321-.171.513-.433.507a.441.441,0,0,1-.426-.494c0-1.792-.02-3.585.007-5.377a2.13,2.13,0,0,1,1.429-2.012c.767-.33,1.534-.66,2.307-.977a.59.59,0,0,0,.408-.592.993.993,0,0,0-.344-.863,3.287,3.287,0,0,1-1.049-2.363,1.023,1.023,0,0,0-.18-.367c-.078-.144-.217-.279-.234-.427A4.023,4.023,0,0,1,118,1.576,3.509,3.509,0,0,1,120.611.06,5.326,5.326,0,0,1,123.589.4a3.432,3.432,0,0,1,2.022,3.121.94.94,0,0,1-.294.719.615.615,0,0,0-.156.345c-.06.534-.053,1.078-.158,1.6a3.041,3.041,0,0,1-1.051,1.662.834.834,0,0,0,.2,1.276q1.136.492,2.279.97a2.2,2.2,0,0,1,1.485,2.173c.005,1.71,0,3.42,0,5.13a1.215,1.215,0,0,1-.026.271.421.421,0,0,1-.827-.047,2.715,2.715,0,0,1-.008-.274q0-2.5,0-4.993c0-.1-.008-.193-.017-.381-.469.472-.9.869-1.278,1.308a.986.986,0,0,0-.14.6c-.012,1.161-.006,2.322-.006,3.484,0,.421-.139.625-.426.632s-.435-.2-.436-.615c0-1.161.01-2.323,0-3.484a1.921,1.921,0,0,1,.665-1.516c.414-.378.814-.77,1.257-1.191a4.563,4.563,0,0,0-.5-.3c-.739-.322-1.486-.628-2.225-.951A.268.268,0,0,0,123.6,10c-.5.49-1.02.966-1.515,1.462a.592.592,0,0,0-.147.385c-.009,1.829-.006,3.658-.007,5.486,0,.118.027.265-.034.348a.743.743,0,0,1-.388.3.351.351,0,0,1-.412-.3,1.733,1.733,0,0,1-.026-.354c0-1.81,0-3.621,0-5.431a.617.617,0,0,0-.213-.5c-.5-.456-.974-.932-1.472-1.387a.368.368,0,0,0-.309-.068c-.766.31-1.525.634-2.282.963a4.308,4.308,0,0,0-.474.286m1.929-6.832a1.312,1.312,0,0,0,.217-.075c.146-.086.286-.181.429-.272a.452.452,0,0,1,.637.051.408.408,0,0,1-.123.6c-.172.129-.371.225-.542.355a.391.391,0,0,0-.16.248,2.7,2.7,0,0,0,1.753,2.483,2.8,2.8,0,0,0,2.913-.513,2.906,2.906,0,0,0,.9-2.72c-.651,0-1.295.05-1.927-.012a4.257,4.257,0,0,1-2.462-1.073.41.41,0,0,1-.075-.628.443.443,0,0,1,.64.013,5.043,5.043,0,0,0,4.271.82,2.657,2.657,0,0,0-1.829-2.625,5.279,5.279,0,0,0-2.16-.13,2.692,2.692,0,0,0-2.172,1.432,3.745,3.745,0,0,0-.309,2.048m4.627,4.218a10.611,10.611,0,0,1-1.39.172,10.294,10.294,0,0,1-1.368-.174c-.057.2-.125.438-.183.675a.171.171,0,0,0,.037.142c.5.485,1.009.966,1.529,1.461.513-.491,1.006-.961,1.493-1.437a.229.229,0,0,0,.055-.185c-.051-.229-.119-.455-.174-.655" transform="translate(296.505 753)" fill="#0774bb"/>
    <path id="Path_6629" data-name="Path 6629" d="M6.043,42.477c-.317.3-.64.6-.944.916a.452.452,0,0,0-.091.294C5,44.94,5,46.193,5,47.446A2.222,2.222,0,0,1,5,47.691a.4.4,0,0,1-.415.376.393.393,0,0,1-.423-.335,1.463,1.463,0,0,1-.018-.3c0-1.244,0-2.488-.008-3.732a.656.656,0,0,0-.173-.4c-.269-.293-.565-.564-.84-.832l-1.965.951c.329.308.618.584.914.853a1.828,1.828,0,0,1,.635,1.462c-.014.626.01,1.254-.014,1.879a.561.561,0,0,1-.236.392.454.454,0,0,1-.413-.028.621.621,0,0,1-.193-.419q-.031-.9,0-1.8a1.125,1.125,0,0,0-.414-.943c-.176-.152-.329-.329-.493-.494l-.076.022V44.6q0,1.43,0,2.86a1.386,1.386,0,0,1-.013.271.4.4,0,0,1-.42.34.4.4,0,0,1-.417-.345A1.107,1.107,0,0,1,0,47.505c0-1.1,0-2.2,0-3.3a1.735,1.735,0,0,1,1.091-1.681c.436-.207.871-.417,1.31-.619a.6.6,0,0,0,.369-.559,1.274,1.274,0,0,0-.51-1.246,2.26,2.26,0,0,1-.82-1.548,5.21,5.21,0,0,1,.112-2.321A2.865,2.865,0,0,1,2.631,34.8a.334.334,0,0,0,.172-.38A1.613,1.613,0,0,1,3.586,32.7a1.848,1.848,0,0,1,2,.011,1.622,1.622,0,0,1,.763,1.729.288.288,0,0,0,.14.336A2.86,2.86,0,0,1,7.758,37.1,9.476,9.476,0,0,1,7.7,38.6,2.712,2.712,0,0,1,6.578,40.4a.385.385,0,0,0-.195.389.845.845,0,0,1,0,.245.818.818,0,0,0,.61,1,.386.386,0,0,1,.263.57c-.112.22-.347.279-.64.151-.182-.079-.358-.172-.574-.277m-3.8-4.426a2.113,2.113,0,0,0,1.129,1.889,2.315,2.315,0,0,0,2.488-.053,2.044,2.044,0,0,0,1.022-1.672c-.346.018-.66.059-.973.047a3.6,3.6,0,0,1-2.094-.784.381.381,0,0,0-.306-.07c-.416.193-.818.412-1.266.643m4.628-.713a2.233,2.233,0,0,0-2.23-2.363A2.29,2.29,0,0,0,2.27,37.168a10.275,10.275,0,0,0,.882-.551c.469-.363.576-.36,1,.038a2.721,2.721,0,0,0,2.722.683m-2.308,5.4c.328-.312.632-.6.931-.89a.207.207,0,0,0,.062-.141c-.014-.243-.039-.485-.056-.675H3.636c-.012.2-.032.432-.037.667a.251.251,0,0,0,.073.164c.289.289.584.572.9.876M5.5,34.211a.8.8,0,0,0-.4-.833.989.989,0,0,0-1.078.022.781.781,0,0,0-.361.811Z" transform="translate(403 722.924)" fill="#0774bb"/>
  </g>
</svg>
