<svg xmlns="http://www.w3.org/2000/svg" width="72" height="68" viewBox="0 0 72 68">
  <g id="Admin" transform="translate(-963.999 -208.001)">
    <path id="Path_6707" data-name="Path 6707" d="M278.2,241.458a9.911,9.911,0,0,1-.988-.514,1.623,1.623,0,0,1-.282-.262,1.475,1.475,0,0,1,.34-.249c.481-.172.972-.317,1.457-.478a1.583,1.583,0,0,0,1.127-2.14q-.614-2.048-1.24-4.092a1.555,1.555,0,0,0-2.2-1.132l-1.895.609a4.937,4.937,0,0,1,.191-.605c.225-.459.474-.905.7-1.364a1.563,1.563,0,0,0-.735-2.264q-1.932-1.017-3.87-2.021a1.542,1.542,0,0,0-2.174.674c-.256.477-.5.964-.749,1.443-.067.126-.16.239-.309.459-.1-.244-.163-.374-.206-.51-.163-.517-.309-1.04-.481-1.554a1.618,1.618,0,0,0-.968-1.026,1.728,1.728,0,0,0-.731-.091,3.258,3.258,0,0,0-.836.241c-.592.218-1.2.4-1.8.591-.617.2-1.238.394-1.854.6a1.58,1.58,0,0,0-1.11,2.147c.147.49.307.976.445,1.468a1.854,1.854,0,0,1,.02.428,1.583,1.583,0,0,1-.409-.079c-.459-.224-.907-.471-1.361-.706a1.549,1.549,0,0,0-2.236.7q-1.05,1.993-2.08,4a1.555,1.555,0,0,0,.756,2.255c.455.233.909.467,1.356.715.092.051.211.175.2.254s-.144.181-.244.218c-.524.191-1.057.357-1.583.544a1.55,1.55,0,0,0-1.052,2.061c.215.721,1.291,4.185,1.351,4.356a1.49,1.49,0,0,0,2.016.96c.533-.166,1.061-.347,1.594-.511a1.113,1.113,0,0,1,.3-.008.908.908,0,0,1-.021.337c-.253.514-.525,1.018-.788,1.527a1.568,1.568,0,0,0,.691,2.212q1.972,1.04,3.95,2.07a1.548,1.548,0,0,0,2.177-.682c.256-.477.5-.964.75-1.443a5.225,5.225,0,0,1,.313-.448c.1.242.159.374.2.511.173.547.321,1.1.514,1.641a1.5,1.5,0,0,0,1.909.96c1.464-.458,2.925-.928,4.378-1.419a1.536,1.536,0,0,0,1.012-1.969c-.162-.566-.347-1.125-.508-1.691a1.105,1.105,0,0,1,.01-.334,1.023,1.023,0,0,1,.331.041c.458.226.907.471,1.361.706a1.571,1.571,0,0,0,2.34-.714c.147-.273.286-.549.432-.823q.806-1.512,1.614-3.024l.22-.711a1.99,1.99,0,0,0-1.356-1.861m-.329,1.969c-.673,1.27-1.338,2.545-2.036,3.877-.66-.342-1.3-.668-1.937-1-.694-.368-.871-.35-1.43.181a.557.557,0,0,1-.1.095,1.418,1.418,0,0,0-.61,2.073,15.859,15.859,0,0,1,.517,1.731l-4.37,1.405c-.234-.758-.457-1.481-.681-2.2-.211-.681-.355-.789-1.044-.823a5.125,5.125,0,0,1-.738-.082.886.886,0,0,0-1.051.555c-.358.7-.733,1.394-1.129,2.144l-4.059-2.175c.383-.75.734-1.47,1.115-2.174a.845.845,0,0,0-.144-1.1,7.585,7.585,0,0,1-.6-.708.827.827,0,0,0-1.018-.323c-.765.249-1.534.487-2.355.747l-1.325-4.452,2.155-.731c.639-.217.742-.362.785-1.035a7.72,7.72,0,0,1,.1-.783.865.865,0,0,0-.5-1c-.693-.37-1.379-.756-2.107-1.156l2.168-4.141c.653.34,1.27.655,1.882.981.748.4.856.319,1.518-.168,1.285-.946.945-1.119.614-2.319-.139-.506-.293-1.008-.457-1.568l4.375-1.4c.237.774.462,1.512.69,2.249.192.62.344.731.987.772a6.624,6.624,0,0,1,.784.086.9.9,0,0,0,1.051-.56c.357-.7.732-1.4,1.127-2.145l4.043,2.169c-.38.738-.739,1.437-1.1,2.135a.826.826,0,0,0,.161,1.166,6.184,6.184,0,0,1,.535.641.861.861,0,0,0,1.093.347c.748-.248,1.5-.481,2.309-.74l1.315,4.443c-.794.259-1.539.517-2.294.742a.888.888,0,0,0-.7.916,7.91,7.91,0,0,1-.1.876.864.864,0,0,0,.5.993c.621.316,1.231.654,1.855.962.24.119.334.237.2.5" transform="translate(756.04 22.667)" fill="#0774bb"/>
    <path id="Path_6708" data-name="Path 6708" d="M304.831,271.231a5.481,5.481,0,1,0,3.581,6.82,5.49,5.49,0,0,0-3.581-6.82m2.095,6.4a3.868,3.868,0,1,1-2.512-4.925,3.935,3.935,0,0,1,2.512,4.925" transform="translate(719.483 -14.032)" fill="#0774bb"/>
    <path id="Path_6709" data-name="Path 6709" d="M13.5,50.932A17.887,17.887,0,0,1,41.584,39.814a18.868,18.868,0,0,1,4.161,4.257,1.081,1.081,0,0,0,1.8.2,1.135,1.135,0,0,0-.08-1.482,19.16,19.16,0,0,0-6.388-5.843c-1.393-.768-2.878-1.366-4.346-2.052a11.533,11.533,0,0,0,5.757-8.546,11.278,11.278,0,0,0-3.284-9.91,11.484,11.484,0,0,0-16.6.286A11.2,11.2,0,0,0,19.485,25a11.665,11.665,0,0,0,5.969,9.946c-8.258,2.882-13.03,8.643-14.417,17.31-.149-.141-.249-.228-.34-.323C3.888,44.85,1.011,36.411,2.53,26.659A28.732,28.732,0,0,1,27.522,2.339a27.825,27.825,0,0,1,23.694,8.067,28.4,28.4,0,0,1,8.646,23.117c-.084,1.251-.321,2.492-.482,3.738a1.061,1.061,0,0,0,.775,1.24,1.045,1.045,0,0,0,1.252-.636,3.755,3.755,0,0,0,.157-.654,32.123,32.123,0,0,0,.02-11.727A31.211,31.211,0,0,0,37.348.671C35.887.381,34.4.221,32.927,0h-3.75a2.851,2.851,0,0,1-.448.105A31.1,31.1,0,0,0,.01,30.17c-.223,9.43,2.925,17.6,9.859,23.94,9.33,8.534,20.15,10.572,32.09,6.486.807-.276,1.108-.832.876-1.474-.225-.621-.837-.837-1.621-.545A28.454,28.454,0,0,1,28.6,60.316,28.759,28.759,0,0,1,13.57,54.5a.863.863,0,0,1-.415-.9c.129-.888.176-1.79.343-2.67m8.124-26.185A9.427,9.427,0,1,1,31.056,34.2a9.441,9.441,0,0,1-9.435-9.449" transform="translate(964 208)" fill="#0774bb"/>
  </g>
</svg>
