<svg xmlns="http://www.w3.org/2000/svg" width="40.001" height="30.001" viewBox="0 0 40.001 30.001">
  <g id="Group_470" data-name="Group 470" transform="translate(-141.001 -724)">
    <path id="Path_6712" data-name="Path 6712" d="M20.049,0Q29.177,0,38.3,0a2.917,2.917,0,0,1,.577.031,1.441,1.441,0,0,1-.2,2.847c-.1.008-.208,0-.312,0q-18.344,0-36.689.005A1.5,1.5,0,0,1,.157,2.021,1.433,1.433,0,0,1,1.348.008C1.5,0,1.645,0,1.794,0H20.049" transform="translate(140.975 724)"/>
    <path id="Path_6713" data-name="Path 6713" d="M17.137,110.668q-7.774,0-15.547,0a1.439,1.439,0,0,1-1.476-1.913,1.384,1.384,0,0,1,1.229-.962,3.443,3.443,0,0,1,.4-.006q15.391,0,30.783,0a2.907,2.907,0,0,1,.576.031,1.441,1.441,0,0,1-.2,2.847c-.148.011-.3,0-.445,0H17.137" transform="translate(140.979 629.774)"/>
    <path id="Path_6714" data-name="Path 6714" d="M10.821,218.452c-3.1,0-6.2.005-9.3,0a1.436,1.436,0,0,1-1.409-1.974,1.384,1.384,0,0,1,1.335-.9c.692-.013,1.384,0,2.076,0q8.283,0,16.566,0a1.45,1.45,0,0,1,1.488,1.954,1.465,1.465,0,0,1-1.459.927q-4.649,0-9.3,0" transform="translate(141.001 535.547)"/>
  </g>
</svg>
