<svg xmlns="http://www.w3.org/2000/svg" width="28" height="33" viewBox="0 0 28 33">
  <g id="Group_489" data-name="Group 489" transform="translate(-521 -693)">
    <path id="Path_6618" data-name="Path 6618" d="M12,33a2.6,2.6,0,0,0-.907-.181,12.3,12.3,0,0,1-9.942-9.386,12.131,12.131,0,0,1,.469-7.674.456.456,0,0,0-.048-.493c-.311-.433-.611-.874-.895-1.326a4.387,4.387,0,0,1,1.06-5.832,4.212,4.212,0,0,1,5.793.677.331.331,0,0,0,.487.1,12.156,12.156,0,0,1,5.751-1.144c.084,0,.168,0,.266,0,.014-.155-.108-.243-.181-.348a5.961,5.961,0,0,1-1.062-2.2A4.375,4.375,0,0,1,16.178.075a4.294,4.294,0,0,1,5.02,3.5,4.3,4.3,0,0,1-.655,3.193c-1.021,1.538-2.06,3.064-3.1,4.592-.282.416-.627.416-.909,0q-.785-1.15-1.556-2.31a.545.545,0,0,0-.426-.276,11.487,11.487,0,0,0-6.146.981c-.181.083-.184.157-.123.331a4.265,4.265,0,0,1-.46,3.931c-1.015,1.542-2.058,3.065-3.094,4.593-.28.413-.629.409-.911,0-.475-.7-.944-1.395-1.439-2.128a7.533,7.533,0,0,0-.455,1.611A11.731,11.731,0,0,0,8.7,31.107a11.416,11.416,0,0,0,14.906-5.875,11.749,11.749,0,0,0-3.838-14.415c-.052-.037-.1-.074-.153-.115a.479.479,0,0,1-.108-.682.457.457,0,0,1,.648-.1,8.7,8.7,0,0,1,1.181.919,12.446,12.446,0,0,1,4.228,10.375,12.535,12.535,0,0,1-10.1,11.579,10.72,10.72,0,0,0-1.256.21ZM4.292,17.561l2.639-3.909c.071-.106.145-.211.206-.324A3.287,3.287,0,0,0,6.97,9.637,3.114,3.114,0,0,0,3.549,8.314,3.374,3.374,0,0,0,1.518,13.48C2.38,14.8,3.279,16.1,4.162,17.4c.034.051.079.1.13.156M16.967,10.3c.033-.023.056-.032.067-.048.942-1.4,1.922-2.77,2.815-4.2a3.369,3.369,0,0,0-.73-4.3,3.282,3.282,0,0,0-4.278.02,3.351,3.351,0,0,0-.7,4.308c.9,1.432,1.878,2.817,2.822,4.223" transform="translate(521 693)" fill="#0774bb"/>
    <path id="Path_6619" data-name="Path 6619" d="M64.289,203.979a4.325,4.325,0,0,1,3.875,2.3,4.15,4.15,0,0,1-.123,4.477c-1.053,1.644-2.193,3.233-3.3,4.84a.489.489,0,0,1-.882-.005c-1.1-1.6-2.232-3.181-3.285-4.812a4.153,4.153,0,0,1-.151-4.475,4.324,4.324,0,0,1,3.868-2.321m-.012,10.485c.037-.023.062-.03.073-.046.969-1.412,1.984-2.794,2.89-4.245a3.19,3.19,0,0,0-.132-3.724,3.252,3.252,0,0,0-3.492-1.4,3.421,3.421,0,0,0-2.215,5.21c.547.853,1.142,1.676,1.716,2.513l1.16,1.69" transform="translate(466.174 506.315)" fill="#0774bb"/>
    <path id="Path_6620" data-name="Path 6620" d="M175.376,237.748c.776,0,1.552,0,2.328,0,.4,0,.6.173.6.487s-.212.5-.6.5q-2.345,0-4.69,0c-.376,0-.61-.2-.611-.494s.23-.489.609-.49c.787,0,1.574,0,2.361,0" transform="translate(363.126 475.72)" fill="#0774bb"/>
    <path id="Path_6621" data-name="Path 6621" d="M265.174,34.66c-.787,0-1.574,0-2.361,0-.379,0-.609-.189-.611-.49s.228-.493.607-.493q2.344,0,4.689,0c.387,0,.6.18.6.489s-.215.493-.6.494c-.776,0-1.552,0-2.328,0" transform="translate(280.899 662.277)" fill="#0774bb"/>
    <path id="Path_6622" data-name="Path 6622" d="M173.012,260.2c.317,0,.634-.009.951,0a.489.489,0,1,1,0,.977q-.967.018-1.935,0a.489.489,0,1,1,0-.977c.328-.011.656,0,.984,0" transform="translate(364.002 455.206)" fill="#0774bb"/>
    <path id="Path_6623" data-name="Path 6623" d="M262.763,57.08c-.306,0-.612.006-.918,0a.5.5,0,0,1-.53-.5.488.488,0,0,1,.516-.48q.951-.012,1.9,0a.493.493,0,0,1,.531.5.5.5,0,0,1-.55.482c-.317.006-.634,0-.951,0" transform="translate(281.709 641.825)" fill="#0774bb"/>
    <path id="Path_6624" data-name="Path 6624" d="M22.51,109.141a2.458,2.458,0,1,1,2.45,2.46,2.447,2.447,0,0,1-2.45-2.46m.984-.007a1.46,1.46,0,0,0,1.467,1.482,1.471,1.471,0,0,0,.021-2.942,1.46,1.46,0,0,0-1.488,1.46" transform="translate(500.464 595.472)" fill="#0774bb"/>
    <path id="Path_6625" data-name="Path 6625" d="M177.314,24.939a2.459,2.459,0,1,1-2.44-2.472,2.456,2.456,0,0,1,2.44,2.472m-.984-.012a1.471,1.471,0,0,0-1.478-1.476,1.476,1.476,0,0,0,0,2.951,1.472,1.472,0,0,0,1.479-1.475" transform="translate(363.159 672.503)" fill="#0774bb"/>
    <path id="Path_6626" data-name="Path 6626" d="M85.082,226.6a2.44,2.44,0,0,1,2.442,2.464,2.459,2.459,0,1,1-2.442-2.464m1.458,2.454a1.453,1.453,0,0,0-1.476-1.47,1.477,1.477,0,0,0-1.473,1.45,1.5,1.5,0,0,0,1.469,1.5,1.477,1.477,0,0,0,1.479-1.477" transform="translate(445.367 485.861)" fill="#0774bb"/>
  </g>
</svg>
