<svg xmlns="http://www.w3.org/2000/svg" width="28" height="28" viewBox="0 0 28 28">
  <g id="Group_332" data-name="Group 332" transform="translate(-591 -850)">
    <path id="Path_6630" data-name="Path 6630" d="M212.094,179.987c.176-.308.348-.6.5-.891a.418.418,0,0,0,.024-.245c-.067-.418-.144-.834-.215-1.251a.4.4,0,0,1,.285-.516.388.388,0,0,1,.463.357c.076.385.138.773.21,1.186l1.133-.2c.3-.051.485.055.524.294s-.1.412-.39.467c-.355.067-.711.132-1.068.185a.465.465,0,0,0-.4.273c-.12.248-.27.481-.406.719a6.444,6.444,0,0,1,1.528,9.094,6.236,6.236,0,0,1-8.271,1.646,6.4,6.4,0,0,1-2.409-8.224,6.272,6.272,0,0,1,8.484-2.9m-.413.7a5.416,5.416,0,0,0-7.163,2.123,5.611,5.611,0,0,0,2.054,7.728,5.473,5.473,0,0,0,7.559-2.269,5.564,5.564,0,0,0-1.79-7.186l-.538.932a4.527,4.527,0,0,1,1.079,6.167,4.377,4.377,0,0,1-5.6,1.473,4.484,4.484,0,0,1-2.2-5.435,4.41,4.41,0,0,1,6.056-2.591l.544-.942m-.943,1.65a3.576,3.576,0,0,0-4.67,1.565,3.7,3.7,0,0,0,1.385,4.965,3.611,3.611,0,0,0,4.9-1.262,3.668,3.668,0,0,0-.951-4.878l-.562.977a2.567,2.567,0,0,1,.442,3.44,2.48,2.48,0,0,1-3.132.784,2.536,2.536,0,0,1-1.271-3,2.444,2.444,0,0,1,1.053-1.39,2.418,2.418,0,0,1,2.24-.217l.568-.982m-.979,1.69a1.665,1.665,0,0,0-2.079.927,1.754,1.754,0,0,0,.785,2.269,1.716,1.716,0,0,0,2.28-.677,1.66,1.66,0,0,0-.335-2.11c-.254.439-.507.878-.763,1.316-.162.277-.371.364-.579.246s-.241-.346-.081-.628c.251-.441.5-.879.771-1.343" transform="translate(403.472 685.926)" fill="#0774bb"/>
    <path id="Path_6631" data-name="Path 6631" d="M0,14Q0,8.01,0,2.019A1.867,1.867,0,0,1,1.427.086,2.952,2.952,0,0,1,2.133.019q4.839-.006,9.677,0c2.836,0,5.671.013,8.507-.015a1.53,1.53,0,0,1,1.643,1.627c-.026,4.107-.011,8.214-.011,12.321,0,.426-.114.611-.376.611s-.38-.192-.38-.609q0-6.161,0-12.321c0-.65-.212-.858-.873-.858L2.079.775A1.167,1.167,0,0,0,.756,2.1q0,11.912,0,23.823a1.167,1.167,0,0,0,1.329,1.318H16.7c.429,0,.611.112.614.378s-.178.382-.607.382H2.092A1.917,1.917,0,0,1,.048,26.516,2.832,2.832,0,0,1,0,25.9Q0,19.95,0,14" transform="translate(591 850)" fill="#0774bb"/>
    <path id="Path_6632" data-name="Path 6632" d="M35.142,259.861c-.495,0-.99.006-1.484,0a1.231,1.231,0,0,1-1.255-1.285q-.009-1.488,0-2.977a1.231,1.231,0,0,1,1.238-1.277q1.5-.023,3,0a1.23,1.23,0,0,1,1.24,1.274q.011,1.5,0,3.005a1.228,1.228,0,0,1-1.252,1.258c-.495.007-.99,0-1.484,0m-.008-4.763c-.466,0-.931,0-1.4,0-.4,0-.57.16-.573.55q-.011,1.443,0,2.887c0,.385.185.559.57.561q1.4.006,2.794,0c.4,0,.585-.173.589-.575q.013-1.443,0-2.887c0-.373-.181-.533-.558-.536-.475,0-.951,0-1.426,0" transform="translate(561.071 614.644)" fill="#0774bb"/>
    <path id="Path_6633" data-name="Path 6633" d="M35.151,60.628c.485,0,.971,0,1.456,0a1.236,1.236,0,0,1,1.271,1.27q.012,1.5,0,3.006a1.235,1.235,0,0,1-1.249,1.267q-1.484.017-2.969,0A1.24,1.24,0,0,1,32.4,64.884q-.01-1.488,0-2.977a1.236,1.236,0,0,1,1.264-1.278c.495,0,.99,0,1.485,0m-1.99,2.749c0,.462,0,.924,0,1.386s.158.636.61.638q1.369.007,2.737,0c.438,0,.607-.169.61-.612q.009-1.4,0-2.8c0-.421-.177-.592-.6-.593q-1.383-.005-2.766,0c-.418,0-.589.174-.594.6-.005.462,0,.924,0,1.386" transform="translate(561.071 793.915)" fill="#0774bb"/>
    <path id="Path_6634" data-name="Path 6634" d="M35.13,162.966c-.495,0-.99,0-1.485,0A1.234,1.234,0,0,1,32.4,161.7q-.013-1.5,0-3.006a1.234,1.234,0,0,1,1.241-1.274q1.5-.018,3,0a1.235,1.235,0,0,1,1.237,1.279q.011,1.488,0,2.977a1.239,1.239,0,0,1-1.285,1.287c-.485,0-.971,0-1.456,0m-.021-.766c.456,0,.913,0,1.369,0s.63-.166.633-.619q.009-1.4,0-2.8c0-.409-.171-.583-.574-.586q-1.4-.009-2.795,0c-.419,0-.586.175-.588.6q-.006,1.4,0,2.8c0,.437.174.6.614.6s.893,0,1.34,0" transform="translate(561.078 704.38)" fill="#0774bb"/>
    <path id="Path_6635" data-name="Path 6635" d="M125.689,183.558h-3.31c-.085,0-.2.029-.251-.015a.8.8,0,0,1-.294-.369.323.323,0,0,1,.313-.372,1.753,1.753,0,0,1,.256-.008h6.591a2.253,2.253,0,0,1,.228.005.351.351,0,0,1,.341.359.361.361,0,0,1-.338.394,1.456,1.456,0,0,1-.228.005h-3.31" transform="translate(478.446 680.969)" fill="#0774bb"/>
    <path id="Path_6636" data-name="Path 6636" d="M125.652,85.9h3.28a2.385,2.385,0,0,1,.256.007.345.345,0,0,1,.328.341.364.364,0,0,1-.293.4,1.1,1.1,0,0,1-.283.016h-6.588a1.287,1.287,0,0,1-.228-.006.368.368,0,0,1-.343-.392.346.346,0,0,1,.363-.365c.313-.009.627,0,.941-.005h2.567" transform="translate(478.489 770.572)" fill="#0774bb"/>
    <path id="Path_6637" data-name="Path 6637" d="M124.588,109.331c-.828,0-1.656,0-2.484,0-.35,0-.565-.276-.4-.532a.538.538,0,0,1,.385-.222c1.694-.015,3.388-.01,5.082-.009a.369.369,0,0,1,.419.372c.016.233-.152.389-.428.391-.857,0-1.713,0-2.57,0" transform="translate(478.615 749.608)" fill="#0774bb"/>
    <path id="Path_6638" data-name="Path 6638" d="M124.687,206.206q-1.213,0-2.426,0c-.355,0-.531-.126-.535-.376s.184-.39.523-.39q2.469,0,4.939,0c.351,0,.56.243.452.519a.407.407,0,0,1-.439.248c-.837,0-1.675,0-2.512,0" transform="translate(478.541 660.027)" fill="#0774bb"/>
    <path id="Path_6639" data-name="Path 6639" d="M124.347,280.424c-.714,0-1.427,0-2.141,0-.305,0-.475-.137-.482-.372s.175-.393.49-.393q2.127,0,4.254,0c.315,0,.5.149.5.388s-.18.376-.506.377c-.7,0-1.408,0-2.113,0" transform="translate(478.543 591.398)" fill="#0774bb"/>
    <path id="Path_6640" data-name="Path 6640" d="M123.494,303.009c-.437,0-.875,0-1.312,0-.285,0-.447-.14-.454-.368s.172-.4.459-.4q1.312-.005,2.624,0c.277,0,.445.148.452.374s-.159.389-.458.392c-.437,0-.875,0-1.312,0" transform="translate(478.539 570.409)" fill="#0774bb"/>
    <path id="Path_6641" data-name="Path 6641" d="M52.861,276.442c.378-.385.71-.726,1.046-1.063.225-.226.448-.248.618-.069s.145.386-.069.605q-.61.626-1.229,1.243a.4.4,0,0,1-.662.007c-.164-.16-.329-.32-.482-.49a.369.369,0,0,1,0-.561.352.352,0,0,1,.533.014,2.974,2.974,0,0,1,.247.313" transform="translate(543.004 595.502)" fill="#0774bb"/>
    <path id="Path_6642" data-name="Path 6642" d="M52.878,84.43c.368-.381.692-.719,1.02-1.052.233-.237.439-.261.617-.084s.157.391-.073.625q-.6.614-1.209,1.223c-.252.252-.43.25-.682,0-.157-.154-.314-.307-.463-.469a.371.371,0,0,1-.016-.561.362.362,0,0,1,.555.018,3.777,3.777,0,0,1,.25.3" transform="translate(543.005 773.077)" fill="#0774bb"/>
    <path id="Path_6643" data-name="Path 6643" d="M52.867,180.442c.369-.376.7-.709,1.024-1.04.245-.247.46-.275.638-.089s.144.39-.087.626q-.592.6-1.189,1.2c-.267.268-.439.268-.7.007-.156-.154-.315-.307-.462-.47a.37.37,0,0,1,0-.561.353.353,0,0,1,.533.014,3.028,3.028,0,0,1,.248.31" transform="translate(542.999 684.281)" fill="#0774bb"/>
  </g>
</svg>
