<svg xmlns="http://www.w3.org/2000/svg" width="28" height="30" viewBox="0 0 28 30">
  <g id="Group_136" data-name="Group 136" transform="translate(-512 -704)">
    <path id="Path_6466" data-name="Path 6466" d="M5.815,30a5.512,5.512,0,0,1-.576-.2,2.262,2.262,0,0,1-1.407-2.1c-.031-1.415-.011-2.832-.008-4.247,0-.318.178-.515.44-.518s.441.192.441.538c0,1.367,0,2.734,0,4.1A1.486,1.486,0,0,0,5.74,29.054,1.463,1.463,0,0,0,7.626,27.62c.013-.771,0-1.543,0-2.314,0-.81.217-1.029,1.024-1.029H23.239V20.488h-4.82c0,.245,0,.477,0,.709a.823.823,0,0,1-1.353.666c-1.039-.8-2.081-1.6-3.113-2.411a.79.79,0,0,1,.015-1.3c1.026-.8,2.059-1.6,3.09-2.393a.825.825,0,0,1,1.362.679c0,.223,0,.445,0,.705.22,0,.414-.01.607,0,.307.019.474.19.464.455s-.174.408-.471.416c-.343.009-.688.011-1.031,0a.422.422,0,0,1-.451-.466c-.007-.322,0-.644,0-1.043L14.55,18.8l2.986,2.307c0-.336,0-.605,0-.874,0-.528.122-.648.664-.648h7.227V18.014H21.245a2.654,2.654,0,0,1-.294-.007.405.405,0,0,1-.4-.422.391.391,0,0,1,.388-.433c.362-.024.726-.015,1.089-.017.4,0,.8,0,1.214,0V13.628a4.323,4.323,0,0,1-3.157-1.954,4.177,4.177,0,0,1-.681-2.5,4.341,4.341,0,0,1,3.833-4.085,1.342,1.342,0,0,0,.019-.162c0-.859.006-1.719,0-2.578A1.441,1.441,0,0,0,21.805.882Q13.087.874,4.369.88C4.332.88,4.3.887,4.2.9a3.1,3.1,0,0,1,.508,2.219c0,2.012,0,4.023,0,6.035v.362H9.588c0-.24,0-.471,0-.7a.8.8,0,0,1,.463-.785.818.818,0,0,1,.907.123c1.022.792,2.049,1.577,3.067,2.375a.8.8,0,0,1,0,1.346c-1.012.789-2.03,1.57-3.044,2.355a.829.829,0,0,1-.931.137.815.815,0,0,1-.461-.816c0-.213,0-.426,0-.659H4.705v.344q0,3.984,0,7.968c0,.1,0,.2,0,.293a.406.406,0,0,1-.4.4.4.4,0,0,1-.457-.329,1.417,1.417,0,0,1-.025-.348q0-3.984,0-7.968v-.381c-.4,0-.77,0-1.139,0-.717,0-1-.286-1-.991,0-.5-.006-1,0-1.494a.787.787,0,0,1,.844-.845c.42-.009.84,0,1.278,0V5.723H3.489c-.854,0-1.708,0-2.562,0C.266,5.72,0,5.455,0,4.792c0-.771,0-1.543,0-2.314A2.343,2.343,0,0,1,1.914.045.285.285,0,0,0,1.986,0H22.133a.968.968,0,0,0,.134.052A2.32,2.32,0,0,1,24.108,1.99a4.211,4.211,0,0,1,.029.671c0,.809,0,1.617,0,2.431a2.521,2.521,0,0,1,.342.066c.442.153.89.3,1.319.479a.411.411,0,0,1,.192.574.44.44,0,0,1-.6.189c-.054-.023-.106-.052-.158-.077A3.4,3.4,0,1,0,27.1,9.045a4.008,4.008,0,0,0-.458-1.44.636.636,0,0,1,.018-.507.452.452,0,0,1,.4-.161.648.648,0,0,1,.367.292,4.278,4.278,0,0,1-2.757,6.3c-.169.037-.34.067-.509.1v3.5c.444,0,.874-.01,1.3,0a.8.8,0,0,1,.871.884c.006.469,0,.937,0,1.406,0,.777-.261,1.038-1.038,1.039H24.157v3.809h.337c.874,0,1.748,0,2.621,0a.742.742,0,0,1,.844.768c.009.9.027,1.8-.007,2.695a2.239,2.239,0,0,1-1.307,2.009,5.673,5.673,0,0,1-.684.248ZM8,29.107c.118.007.182.014.247.014q8.659,0,17.317,0a1.459,1.459,0,0,0,1.514-1.493c.007-.752,0-1.5,0-2.256a1.626,1.626,0,0,0-.021-.189H8.513c0,.62-.009,1.215,0,1.81A3.021,3.021,0,0,1,8,29.107m2.472-15.6,2.986-2.309L10.472,8.887c0,.332,0,.592,0,.853,0,.553-.116.67-.672.67H2.579v1.576h.359q3.474,0,6.949,0c.445,0,.583.139.585.573,0,.29,0,.58,0,.943M3.8,4.844c.01-.1.022-.163.023-.228,0-.751.007-1.5,0-2.254A1.463,1.463,0,0,0,.895,2.3c-.03.779,0,1.561-.012,2.341,0,.178.082.21.234.208.392-.006.785,0,1.177,0H3.8" transform="translate(512 704)" fill="#0774bb"/>
    <path id="Path_6467" data-name="Path 6467" d="M86.572,40.583q-2.354,0-4.708,0a1.162,1.162,0,0,1-.327-.024.446.446,0,0,1,.061-.87,1.312,1.312,0,0,1,.21-.006h9.506a1.471,1.471,0,0,1,.21.005.446.446,0,0,1,.054.878,1.119,1.119,0,0,1-.3.018H86.572" transform="translate(437.106 667.502)" fill="#0774bb"/>
    <path id="Path_6468" data-name="Path 6468" d="M86.555,75.7h4.678a2.055,2.055,0,0,1,.27,0,.419.419,0,0,1,.408.435.426.426,0,0,1-.388.456,1.045,1.045,0,0,1-.209.007H81.807a1.7,1.7,0,0,1-.18,0,.443.443,0,0,1-.425-.454.433.433,0,0,1,.435-.441c.179-.011.36,0,.54,0h4.378" transform="translate(437.116 634.215)" fill="#0774bb"/>
    <path id="Path_6469" data-name="Path 6469" d="M85.1,272.077q-1.6,0-3.207,0a1.389,1.389,0,0,1-.356-.031.441.441,0,0,1,.028-.851,1.115,1.115,0,0,1,.238-.018q3.267,0,6.534,0a1.119,1.119,0,0,1,.268.022.441.441,0,0,1,.028.843,1.272,1.272,0,0,1-.356.035q-1.588,0-3.177,0" transform="translate(437.128 453.994)" fill="#0774bb"/>
    <path id="Path_6470" data-name="Path 6470" d="M84.176,199.893H81.869a1.587,1.587,0,0,1-.3-.016.44.44,0,0,1-.047-.85,1.288,1.288,0,0,1,.355-.034q2.292,0,4.584,0c.07,0,.14,0,.21,0a.441.441,0,0,1,.455.455.424.424,0,0,1-.465.439c-.439.011-.879,0-1.318.005H84.176" transform="translate(437.141 520.544)" fill="#0774bb"/>
    <path id="Path_6471" data-name="Path 6471" d="M84.195,235.051c.759,0,1.518,0,2.277,0,.119,0,.276-.023.348.041a.729.729,0,0,1,.275.434c0,.132-.163.292-.293.39-.08.061-.231.035-.35.035q-2.292,0-4.584,0c-.05,0-.1,0-.15,0-.336-.017-.516-.179-.51-.459s.182-.424.5-.44c.08,0,.16,0,.24,0h2.247" transform="translate(437.151 487.3)" fill="#0774bb"/>
    <path id="Path_6472" data-name="Path 6472" d="M296.361,85.773c.346,0,.654,0,.962,0,.355.006.551.17.553.453s-.187.445-.548.447c-.449,0-.9,0-1.349,0a.453.453,0,0,1-.516-.516q-.008-1.171,0-2.342a.452.452,0,1,1,.9-.007c0,.639,0,1.279,0,1.965" transform="translate(239.704 627.186)" fill="#0774bb"/>
  </g>
</svg>
