<svg xmlns="http://www.w3.org/2000/svg" width="24" height="24" viewBox="976 56 24 24"><path d="M986.113 56.016a8.844 8.844 0 0 1 2.18.401c2.077.666 3.943 2.025 5.156 3.85.183.274.35.558.5.85 1.752 3.413 1.173 7.886-1.391 10.736l7.074 7.104c.237.239.49.597.303.877-.24.36-.795.066-1.1-.242l-6.969-7.032c-2.95 2.673-7.646 3.182-11.097 1.201-3.451-1.98-5.393-6.298-4.588-10.203.499-2.42 2.03-4.566 4.055-5.952 1.68-1.15 3.812-1.711 5.877-1.59m7.889 9.472c-.029-4.704-3.763-8.527-8.507-8.53a8.482 8.482 0 0 0-8.507 8.524 8.5 8.5 0 0 0 8.5 8.534c4.673.02 8.508-3.835 8.514-8.528" fill="#0774bb" fill-rule="evenodd" data-name="search"/></svg>