<svg xmlns="http://www.w3.org/2000/svg" width="11.996" height="11.999" viewBox="0 0 11.996 11.999">
  <path id="ic_search" d="M1097.247,80.371a4.631,4.631,0,0,1-.932,2.841c-.064.086-.065.085.01.16.1.1.2.2.3.3a.064.064,0,0,0,.087.017.84.84,0,0,1,.978.182l1.542,1.535c.194.193.39.383.583.575a.854.854,0,0,1,0,1.248c-.155.153-.3.314-.47.452a.833.833,0,0,1-1.111-.054c-.559-.556-1.113-1.116-1.669-1.675-.162-.163-.322-.328-.484-.49a.856.856,0,0,1-.191-.96.075.075,0,0,0-.018-.1c-.109-.1-.216-.208-.318-.318-.043-.047-.071-.037-.113,0a4.2,4.2,0,0,1-.753.473,4.554,4.554,0,0,1-5.135-.746,4.582,4.582,0,0,1,4.761-7.633,4.6,4.6,0,0,1,2.811,3.217,4.735,4.735,0,0,1,.091.527C1097.233,80.092,1097.239,80.271,1097.247,80.371Zm-.844.079a3.74,3.74,0,1,0-3.6,3.737A3.734,3.734,0,0,0,1096.4,80.45Z" transform="translate(-1088.084 -75.867)" fill="#0076bf"/>
</svg>
