<svg xmlns="http://www.w3.org/2000/svg" width="21.795" height="14.945" viewBox="0 0 21.795 14.945">
  <g id="ic_password" transform="translate(-823.67 -505.526)">
    <ellipse id="Ellipse_455" data-name="Ellipse 455" cx="2.5" cy="3" rx="2.5" ry="3" transform="translate(832 510.146)" fill="#c1e7ff"/>
    <g id="Group_4379" data-name="Group 4379" transform="translate(-48.972 -241.489)">
      <path id="Path_627" data-name="Path 627" d="M894.187,756.277c-.225.3-.437.622-.676.91A20.547,20.547,0,0,1,888,762.025a8.674,8.674,0,0,1-4.9,1.312,8.861,8.861,0,0,1-3.613-1.094,19.856,19.856,0,0,1-5.731-4.84c-.248-.292-.486-.6-.721-.9a.557.557,0,0,1,0-.738,20.852,20.852,0,0,1,6.375-5.706,8.662,8.662,0,0,1,8.48-.079A16,16,0,0,1,894,755.67c.067.1.124.211.185.317Zm-.984-.115c-.085-.128-.123-.2-.169-.254-.47-.59-.918-1.208-1.417-1.763a12.905,12.905,0,0,0-5.236-3.7,7.737,7.737,0,0,0-3.732-.432,9.328,9.328,0,0,0-3.611,1.43,20.354,20.354,0,0,0-4.349,3.81c-.251.283-.493.58-.735.867a.74.74,0,0,0,.049.088,20.477,20.477,0,0,0,5.55,4.926,8.25,8.25,0,0,0,3.714,1.185,7.669,7.669,0,0,0,3.994-1.03,19.07,19.07,0,0,0,5.1-4.219C892.638,756.76,892.922,756.464,893.2,756.162Z" transform="translate(0 -1.641)" stroke="#000" stroke-width="0.5"/>
      <path id="Path_628" data-name="Path 628" d="M889.616,760.938a3.543,3.543,0,1,1,3.548-3.533A3.536,3.536,0,0,1,889.616,760.938Zm-2.654-3.554a2.66,2.66,0,1,0,2.666-2.649A2.667,2.667,0,0,0,886.962,757.384Z" transform="translate(-6.078 -3.127)" stroke="#000" stroke-width="0.5"/>
    </g>
  </g>
</svg>
