<svg id="ic_username" xmlns="http://www.w3.org/2000/svg" width="17.999" height="18" viewBox="0 0 17.999 18">
  <path id="Path_2410" data-name="Path 2410" d="M-473.627-740.515c-.107-.1-.181-.169-.256-.237a5.18,5.18,0,0,1-1.341-5.871,5.219,5.219,0,0,1,5.106-3.2,5.234,5.234,0,0,1,4.9,4.912,5.183,5.183,0,0,1-4.436,5.419c-.916.116-1.848.1-2.763.219a9.237,9.237,0,0,0-4.256,1.615,2.934,2.934,0,0,0-1.338,2.631c.011.316,0,.633,0,.949,0,.58.258.838.835.839q2.654,0,5.308,0h8.12c.694,0,.928-.23.92-.928a14.754,14.754,0,0,0-.058-1.576,2.338,2.338,0,0,0-.941-1.632,15.567,15.567,0,0,0-1.626-1.028c-.456-.258-.644-.593-.47-.984a.7.7,0,0,1,1.068-.29,14.663,14.663,0,0,1,1.841,1.149,4.049,4.049,0,0,1,1.6,3.329c0,.422.006.844,0,1.265a2.1,2.1,0,0,1-2.1,2.1q-6.89.01-13.779,0a2.088,2.088,0,0,1-2.111-2.125,14.146,14.146,0,0,1,.1-2.135,3.874,3.874,0,0,1,1.425-2.394,9.809,9.809,0,0,1,3.9-1.921C-473.882-740.441-473.776-740.473-473.627-740.515Zm7-4.109a3.8,3.8,0,0,0-3.8-3.8,3.8,3.8,0,0,0-3.793,3.771,3.8,3.8,0,0,0,3.781,3.819A3.8,3.8,0,0,0-466.624-744.624Z" transform="translate(479.415 749.833)"/>
  <path id="Path_2411" data-name="Path 2411" d="M-397.84-726a3.8,3.8,0,0,1-3.811,3.789,3.8,3.8,0,0,1-3.781-3.819,3.8,3.8,0,0,1,3.793-3.771A3.8,3.8,0,0,1-397.84-726Z" transform="translate(410.631 731.208)" fill="#c1e7ff"/>
</svg>
